<?xml version="1.0" encoding="UTF-8" standalone="no"?>
<svg
   height="24px"
   viewBox="0 -960 960 960"
   width="24px"
   fill="#e3e3e3"
   version="1.1"
   id="svg1"
   sodipodi:docname="check_all.svg"
   inkscape:version="1.4.2 (ebf0e940, 2025-05-08)"
   xmlns:inkscape="http://www.inkscape.org/namespaces/inkscape"
   xmlns:sodipodi="http://sodipodi.sourceforge.net/DTD/sodipodi-0.dtd"
   xmlns="http://www.w3.org/2000/svg"
   xmlns:svg="http://www.w3.org/2000/svg">
  <defs
     id="defs1" />
  <sodipodi:namedview
     id="namedview1"
     pagecolor="#ffffff"
     bordercolor="#000000"
     borderopacity="0.25"
     inkscape:showpageshadow="2"
     inkscape:pageopacity="0.0"
     inkscape:pagecheckerboard="0"
     inkscape:deskcolor="#d1d1d1"
     inkscape:zoom="8.6666667"
     inkscape:cx="15.519231"
     inkscape:cy="18.692308"
     inkscape:window-width="1224"
     inkscape:window-height="851"
     inkscape:window-x="0"
     inkscape:window-y="25"
     inkscape:window-maximized="0"
     inkscape:current-layer="svg1" />
  <path
     d="M440-80q-50-5-96-24.5T256-156l56-58q29 21 61.5 34t66.5 18v82Zm80 0v-82q104-15 172-93.5T760-438q0-117-81.5-198.5T480-718h-8l64 64-56 56-160-160 160-160 56 58-62 62h6q75 0 140.5 28.5t114 77q48.5 48.5 77 114T840-438q0 137-91 238.5T520-80ZM198-214q-32-42-51.5-88T122-398h82q5 34 18 66.5t34 61.5l-58 56Zm-76-264q6-51 25-98t51-86l58 56q-21 29-34 61.5T204-478h-82Z"
     id="path1"
     style="fill:#5a5e60;fill-opacity:1" />
</svg>
