<?xml version="1.0" encoding="UTF-8" standalone="no"?>
<svg
   height="24px"
   viewBox="0 -960 960 960"
   width="24px"
   fill="#e3e3e3"
   version="1.1"
   id="svg1"
   sodipodi:docname="check_circle.svg"
   inkscape:version="1.4.2 (ebf0e940, 2025-05-08)"
   xmlns:inkscape="http://www.inkscape.org/namespaces/inkscape"
   xmlns:sodipodi="http://sodipodi.sourceforge.net/DTD/sodipodi-0.dtd"
   xmlns="http://www.w3.org/2000/svg"
   xmlns:svg="http://www.w3.org/2000/svg">
  <defs
     id="defs1" />
  <sodipodi:namedview
     id="namedview1"
     pagecolor="#ffffff"
     bordercolor="#000000"
     borderopacity="0.25"
     inkscape:showpageshadow="2"
     inkscape:pageopacity="0.0"
     inkscape:pagecheckerboard="0"
     inkscape:deskcolor="#d1d1d1"
     inkscape:zoom="1.0833333"
     inkscape:cx="11.538462"
     inkscape:cy="11.538462"
     inkscape:window-width="1088"
     inkscape:window-height="754"
     inkscape:window-x="0"
     inkscape:window-y="25"
     inkscape:window-maximized="0"
     inkscape:current-layer="svg1" />
  <path
     d="m 280,-640 h 400 v 80 H 280 Z m 0,160 h 160 v 60 h -57 q 20,19 45,29.5 25,10.5 52,10.5 47,0 83.5,-27.5 Q 600,-435 614,-480 h 62 q -14,70 -69,115 -55,45 -127,45 -39,0 -75.5,-15 -36.5,-15 -64.5,-43 v 58 h -60 z m 200,-400 q -83,0 -156,31.5 -73,31.5 -127,85.5 -54,54 -85.5,127 -31.5,73 -31.5,156 0,83 31.5,156 31.5,73 85.5,127 54,54 127,85.5 73,31.5 156,31.5 83,0 156,-31.5 73,-31.5 127,-85.5 54,-54 85.5,-127 31.5,-73 31.5,-156 0,-83 -31.5,-156 Q 817,-709 763,-763 709,-817 636,-848.5 563,-880 480,-880 Z m 0,80 q 134,0 227,93 93,93 93,227 0,134 -93,227 -93,93 -227,93 -134,0 -227,-93 -93,-93 -93,-227 0,-134 93,-227 93,-93 227,-93 z m 0,320 z"
     id="path1"
     style="fill:#80541e;fill-opacity:1" />
</svg>
