<?xml version="1.0" encoding="UTF-8" standalone="no"?>
<!-- Created with Inkscape (http://www.inkscape.org/) -->

<svg
   width="210mm"
   height="297mm"
   viewBox="0 0 210 297"
   version="1.1"
   id="svg1"
   xml:space="preserve"
   inkscape:version="1.4.2 (ebf0e940, 2025-05-08)"
   sodipodi:docname="logo.svg"
   xmlns:inkscape="http://www.inkscape.org/namespaces/inkscape"
   xmlns:sodipodi="http://sodipodi.sourceforge.net/DTD/sodipodi-0.dtd"
   xmlns="http://www.w3.org/2000/svg"
   xmlns:svg="http://www.w3.org/2000/svg"><sodipodi:namedview
     id="namedview1"
     pagecolor="#ffffff"
     bordercolor="#000000"
     borderopacity="0.25"
     inkscape:showpageshadow="2"
     inkscape:pageopacity="0.0"
     inkscape:pagecheckerboard="0"
     inkscape:deskcolor="#d1d1d1"
     inkscape:document-units="mm"
     inkscape:zoom="0.90509668"
     inkscape:cx="571.76213"
     inkscape:cy="559.60873"
     inkscape:window-width="1408"
     inkscape:window-height="832"
     inkscape:window-x="259"
     inkscape:window-y="25"
     inkscape:window-maximized="0"
     inkscape:current-layer="layer1"
     showguides="true" /><defs
     id="defs1"><inkscape:path-effect
       effect="bspline"
       id="path-effect1"
       is_visible="true"
       lpeversion="1.3"
       weight="33.333333"
       steps="2"
       helper_size="0"
       apply_no_weight="true"
       apply_with_weight="true"
       only_selected="false"
       uniform="false" /></defs><g
     inkscape:label="Слой 1"
     inkscape:groupmode="layer"
     id="layer1"><g
       id="g19"
       transform="matrix(0.92854955,0,0,0.94549224,15.047872,17.402306)"
       style="fill:#ffe47c;fill-opacity:1;stroke:#162d50;stroke-opacity:1"><path
         style="fill:#ffe47c;fill-opacity:1;stroke:#162d50;stroke-width:7;stroke-linecap:round;stroke-dasharray:none;stroke-opacity:1"
         d="m 123.06441,229.52246 c 0.47614,-5.17426 -4.91341,-7.35208 -7.79497,-5.48049 -4.83788,3.14223 -6.83796,15.02755 -1.61603,17.53741 8.45293,4.0628 10.68698,-19.27529 10.75122,-18.92596 2.21098,12.02301 2.07237,11.35209 3.80024,18.1973"
         id="use15-3"
         sodipodi:nodetypes="csssc" /><path
         style="fill:#ffe47c;fill-opacity:1;stroke:#162d50;stroke-width:7;stroke-linecap:round;stroke-dasharray:none;stroke-opacity:1"
         d="m 14.244718,161.94863 c 0.498839,28.04604 0.997678,56.0921 1.496517,84.13815 14.436209,0.22445 28.872409,0.44891 36.285402,-10.06621 7.412993,-10.51512 7.80276,-31.76979 3.905079,-45.71015 -3.89768,-13.94037 -12.082646,-20.5663 -20.755158,-22.61262 -8.672512,-2.04633 -17.831876,0.48712 -22.216766,1.46153 -4.3848893,0.97442 -3.9951252,0.38977 -3.6053587,-0.19488"
         id="path1"
         inkscape:path-effect="#path-effect1"
         inkscape:original-d="m 14.244718,161.94863 c 0.498839,28.04604 1.496517,84.13815 1.496517,84.13815 0,0 28.872409,0.44891 43.308627,0.67336 0.389768,-21.25469 0.779535,-42.50936 1.169302,-63.76403 -8.185128,-6.62606 -16.370092,-13.25199 -24.555386,-19.87818 -9.159733,2.53354 -18.319098,5.06698 -27.4786487,7.60048 0.3897757,-0.58466 0.779536,-1.16931 1.169304,-1.75396"
         sodipodi:nodetypes="ccccccc"
         transform="matrix(1.0688368,0,0,1.0444438,-4.2196731,-17.520665)" /><path
         style="fill:#ffe47c;fill-opacity:1;stroke:#162d50;stroke-width:7;stroke-linecap:round;stroke-dasharray:none;stroke-opacity:1"
         d="m 66.812057,225.29776 c 0.659395,6.23248 0.102403,9.13382 1.346627,16.64181"
         id="path2"
         sodipodi:nodetypes="cc" /><path
         style="fill:#ffe47c;fill-opacity:1;stroke:#162d50;stroke-width:7;stroke-linecap:round;stroke-dasharray:none;stroke-opacity:1"
         d="m 68.061813,215.50053 -0.584652,-1.75396"
         id="path3" /><g
         id="g18"
         style="fill:#ffe47c;fill-opacity:1;stroke:#162d50;stroke-opacity:1"><path
           style="fill:#ffe47c;fill-opacity:1;stroke:#162d50;stroke-width:7.77221;stroke-linecap:round;stroke-dasharray:none;stroke-opacity:1"
           d="m 78.24147,157.1104 c 3.629736,18.78599 0.765056,57.05524 1.147544,85.58298"
           id="path4"
           sodipodi:nodetypes="cc" /><path
           style="fill:#ffe47c;fill-opacity:1;stroke:#162d50;stroke-width:7;stroke-linecap:round;stroke-dasharray:none;stroke-opacity:1"
           d="m 92.233169,223.47287 c -3.412297,-2.19593 -7.201901,0.91669 -9.939086,4.09257"
           id="path5"
           sodipodi:nodetypes="cc" /><path
           style="fill:#ffe47c;fill-opacity:1;stroke:#162d50;stroke-width:7;stroke-linecap:round;stroke-dasharray:none;stroke-opacity:1"
           d="m 92.233169,241.56771 c -5.676272,-0.0824 -7.324353,-5.80435 -10.523738,-9.35444"
           id="path6"
           sodipodi:nodetypes="cc" /></g><g
         id="g17"
         transform="translate(-0.58465209,-0.58465209)"
         style="fill:#ffe47c;fill-opacity:1;stroke:#162d50;stroke-opacity:1"><path
           style="fill:#ffe47c;fill-opacity:1;stroke:#162d50;stroke-width:7.30409;stroke-linecap:round;stroke-dasharray:none;stroke-opacity:1"
           d="m 102.89268,158.55366 v 83.38831"
           id="path7"
           sodipodi:nodetypes="cc" /><path
           style="fill:#ffe47c;fill-opacity:1;stroke:#162d50;stroke-width:7;stroke-linecap:round;stroke-dasharray:none;stroke-opacity:1"
           d="m 95.876857,181.31403 c 4.520753,-0.50779 8.624903,-1.8488 14.616293,0.58466"
           id="path8"
           sodipodi:nodetypes="cc" /></g><path
         style="fill:#ffe47c;fill-opacity:1;stroke:#162d50;stroke-width:7;stroke-linecap:round;stroke-dasharray:none;stroke-opacity:1"
         d="m 146.74767,151.71722 -2.92326,90.62108"
         id="path9" /><path
         style="fill:#ffe47c;fill-opacity:1;stroke:#162d50;stroke-width:7;stroke-linecap:round;stroke-dasharray:none;stroke-opacity:1"
         d="m 137.97789,182.11913 c 16.17136,-1.36218 27.27768,-0.19184 30.98656,4.67722"
         id="path10"
         sodipodi:nodetypes="cc" /><path
         style="fill:#ffe47c;fill-opacity:1;stroke:#162d50;stroke-width:7;stroke-linecap:round;stroke-dasharray:none;stroke-opacity:1"
         d="m 139.73185,155.80979 c 12.75903,0.24721 23.06788,-0.90569 46.18751,5.26186"
         id="path11"
         sodipodi:nodetypes="cc" /><g
         id="g16"
         transform="translate(-5.2618688,1.4616302)"
         style="fill:#ffe47c;fill-opacity:1;stroke:#162d50;stroke-opacity:1"><path
           style="fill:#ffe47c;fill-opacity:1;stroke:#162d50;stroke-width:7;stroke-linecap:round;stroke-dasharray:none;stroke-opacity:1"
           d="m 181.90998,220.67056 4.09257,19.14611"
           id="path12"
           sodipodi:nodetypes="cc" /><path
           style="fill:#ffe47c;fill-opacity:1;stroke:#162d50;stroke-width:7;stroke-linecap:round;stroke-dasharray:none;stroke-opacity:1"
           d="m 186.18356,239.54999 c 0.0751,2.65589 -2.04915,-18.67607 6.4593,-16.79754 5.58811,1.23376 3.50791,11.66693 3.50791,16.95491"
           id="path13"
           sodipodi:nodetypes="csc" /></g><path
         style="fill:#ffe47c;fill-opacity:1;stroke:#162d50;stroke-width:7;stroke-linecap:round;stroke-dasharray:none;stroke-opacity:1"
         d="m 153.70963,225.92496 c -0.60827,8.17055 -0.4097,14.72692 5.39623,15.02326 6.78334,0.34622 7.1874,-19.29003 7.30074,-18.70734 1.79218,9.21372 0.6254,3.26306 4.13416,18.41592"
         id="use15"
         sodipodi:nodetypes="cssc" /></g><path
       style="fill:#162d50;stroke-width:1.2333"
       d="M 19.138583,144.52853 C 1.6815754,132.88752 2.9878189,84.551052 28.198736,88.037396 c 1.050597,-0.0012 3.297793,-1.052942 4.067354,-2.045238 0.942279,-1.215004 0.573992,-4.127134 1.221491,-7.271515 C 47.604036,10.168376 157.41921,11.474807 171.88459,84.159615 l 0.68827,3.458379 4.66373,0.143582 c 26.21664,0.80713 25.11523,52.761694 4.05295,58.453824 -3.5283,0.95353 -10.11629,1.02857 -11.84162,0.34007 -2.28405,-0.91172 -3.9196,-1.9008 -4.40834,-5.01146 -0.35463,-2.25712 0.75852,-43.132779 -0.56976,-53.582909 C 156.24681,23.266709 52.173638,13.425914 37.871264,87.18638 c -0.08224,0.424133 -0.249056,37.50734 -0.208146,55.0323 -1.022799,3.66023 -2.691001,4.21262 -5.031404,4.49605 -1.562172,0.18918 -10.441822,-0.15147 -13.493131,-2.1862 z m 52.807372,-0.31889 c -11.085462,-1.79302 -19.060881,-9.27863 -20.918068,-19.63337 -2.448266,-13.65034 7.25518,-26.368819 21.213837,-27.805314 9.978771,-1.026925 19.566785,4.259384 24.170839,13.326504 2.595075,5.1107 3.113193,11.87122 1.331521,17.37387 -2.799629,8.64661 -9.447758,14.58052 -18.342206,16.37169 -2.372018,0.47769 -5.744105,0.64348 -7.455923,0.36662 z m 7.949005,-5.35101 c 7.197193,-2.08668 12.54591,-8.04886 13.731106,-15.30599 0.338366,-2.07188 0.170418,-6.24705 -0.32387,-8.05147 -0.505049,-1.84373 -2.083299,-4.94502 -3.364901,-6.61213 -2.570636,-3.3439 -7.07765,-6.13451 -11.297373,-6.99503 -3.182703,-0.64903 -7.634768,-0.33304 -10.415877,0.73927 -6.16165,2.37574 -10.268919,6.80547 -11.989125,12.93038 -0.755514,2.69003 -0.836033,6.56897 -0.189398,9.12384 1.676343,6.62326 6.519081,11.81149 13.000428,13.92794 2.57086,0.83951 3.557065,0.97561 6.402978,0.88363 1.879083,-0.0608 3.006909,-0.2232 4.446032,-0.64044 z m 1.003511,-14.21454 c -1.734768,-0.79466 -2.736698,-2.36005 -2.736698,-4.27575 0,-2.54218 1.974432,-4.46676 4.600713,-4.48454 3.84072,-0.026 5.97852,4.52081 3.511748,7.469 -1.305457,1.56022 -3.590453,2.1091 -5.375763,1.29129 z m 43.044769,19.39413 c -5.38011,-0.98229 -9.25443,-2.92327 -13.05502,-6.54041 -3.30448,-3.14499 -5.58896,-7.06103 -6.70138,-11.48747 -0.50106,-1.99382 -0.57735,-2.75003 -0.58042,-5.7539 -0.002,-3.02913 0.0671,-3.72948 0.56641,-5.64271 3.76245,-14.41957 19.43651,-21.894014 33.28767,-15.873762 2.62961,1.142924 5.41355,3.023432 7.38575,4.988912 10.68547,10.64915 8.8937,28.06853 -3.76302,36.58354 -4.83008,3.24951 -11.64038,4.72989 -17.13999,3.7258 z m 8.7129,-5.18018 c 9.25821,-2.67819 15.18813,-11.33719 14.14193,-20.6503 -0.88746,-7.89986 -7.25279,-14.65339 -15.3716,-16.30904 -5.16701,-1.05368 -11.06818,0.19133 -15.14598,3.19546 -9.66597,7.12096 -10.57195,20.65854 -1.93501,28.91372 3.02412,2.89042 6.47364,4.65721 10.50849,5.38227 1.89981,0.3414 5.67189,0.0842 7.80217,-0.53211 z M 119.84655,117.5237 c -1.06668,-0.29442 -2.70619,-1.73604 -3.01087,-2.64744 -0.32629,-0.9761 -0.33686,-2.49774 -0.0238,-3.43414 0.38096,-1.1396 1.89782,-2.41752 3.24951,-2.73766 3.58707,-0.84958 6.84,2.9017 5.3315,6.14827 -1.01274,2.17962 -3.31301,3.28739 -5.5463,2.67097 z M 55.695464,87.821424 c -1.008832,-0.540492 -1.35528,-1.805274 -0.807831,-2.949159 0.457349,-0.955635 4.305753,-3.672774 7.425141,-5.242475 3.900433,-1.962739 7.372773,-2.711747 12.562763,-2.709909 5.592641,0.0025 6.84058,0.361044 7.281396,2.094997 0.161221,0.634199 -0.41078,1.880221 -0.988488,2.153267 -0.195579,0.09239 -2.424535,0.173346 -4.953243,0.179816 -4.003342,0.0098 -4.865129,0.07525 -6.666871,0.503265 -3.868994,0.919033 -7.09447,2.491074 -10.326362,5.032893 -1.736542,1.365757 -2.398455,1.541689 -3.526505,0.937305 z m 88.928776,-1.350733 c -0.4168,-0.214925 -1.49674,-0.950649 -2.39985,-1.634943 -1.91934,-1.454304 -5.37411,-3.16157 -7.55329,-3.732672 -1.25396,-0.32863 -2.34186,-0.401665 -5.98486,-0.401738 l -4.45232,-1.12e-4 -0.52848,-0.606454 c -0.77256,-0.886571 -0.73539,-2.251103 0.0825,-3.024631 0.81877,-0.774447 2.30815,-1.033181 5.9572,-1.034871 3.07595,-0.0013 4.25299,0.152109 7.00417,0.913591 3.22884,0.893693 7.46925,3.203419 9.91927,5.402981 1.60523,1.441132 1.64886,3.146682 0.10425,4.076425 -0.88402,0.532122 -1.18727,0.538102 -2.14853,0.0424 z M 92.728024,76.50296 c -0.954542,-0.942403 -0.885492,-2.017858 0.248156,-3.86511 1.683753,-2.743638 3.384063,-6.654915 4.604709,-10.592371 0.678896,-2.189908 1.075251,-5.249173 1.075251,-8.299282 0,-1.936507 0.0022,-1.947013 0.772395,-2.706609 0.694185,-0.685351 0.862155,-0.750669 1.659015,-0.645148 1.85772,0.246002 2.28873,1.285956 2.08585,5.032861 -0.25671,4.740742 -1.1096,8.33856 -3.14756,13.277676 -1.306117,3.165455 -3.198479,6.747684 -4.017764,7.605593 -0.670963,0.702577 -0.923834,0.824211 -1.713593,0.824211 -0.732092,0 -1.060765,-0.132565 -1.566459,-0.631821 z M 116.171,73.821101 c -0.89816,-0.296287 -1.61728,-1.460735 -1.41429,-2.290107 0.0707,-0.288358 0.56206,-1.406928 1.09219,-2.48571 1.09801,-2.234417 1.80606,-4.845693 1.99928,-7.37332 0.15605,-2.041479 -0.26195,-4.407922 -1.2514,-7.084566 -0.82549,-2.233071 -0.8146,-2.61752 0.0997,-3.520159 0.56964,-0.562389 0.92858,-0.734906 1.52908,-0.734906 1.22759,0 1.98682,0.840933 2.87687,3.186475 2.18798,5.765761 1.83496,11.721984 -1.03453,17.455729 -1.33996,2.677421 -2.29496,3.375021 -3.89688,2.846564 z M 65.258455,70.984362 c -0.414492,-0.40921 -0.537383,-0.757491 -0.537383,-1.522866 0,-1.223115 0.608864,-1.912905 1.999989,-2.26578 6.666686,-1.69109 12.263745,-6.528893 15.919422,-13.759905 0.609535,-1.205691 1.372299,-2.397211 1.695,-2.647822 1.148233,-0.891699 2.768498,-0.385489 3.372261,1.053575 0.240411,0.573017 0.211937,0.835609 -0.217585,2.006703 -1.541362,4.202515 -4.7757,8.795141 -8.262436,11.732317 -2.372987,1.998962 -3.970425,3.034286 -6.583922,4.267108 -2.621613,1.236654 -4.071982,1.661076 -5.688598,1.664652 -0.941074,0.0021 -1.260536,-0.09732 -1.696748,-0.527982 z M 40.84594,30.797052 c -3.678754,-2.413178 -6.905321,-4.659548 -7.170158,-4.991934 -1.185569,-1.488025 -0.166421,-3.572914 1.745752,-3.571341 0.865188,7.13e-4 1.535751,0.385107 7.734338,4.433636 3.754703,2.452337 6.963396,4.697271 7.181801,5.024678 0.284325,0.426229 0.366927,0.861983 0.29521,1.55736 -0.131867,1.27864 -0.891477,1.955952 -2.180028,1.943834 -0.822513,-0.0077 -1.615672,-0.466119 -7.606915,-4.396233 z m 109.79001,3.509031 c -0.55764,-0.267136 -1.18668,-1.276507 -1.18668,-1.904141 0,-1.183966 0.61967,-1.695422 7.49935,-6.189737 7.33517,-4.791856 7.70785,-4.962644 9.00218,-4.125373 1.05452,0.682163 1.34144,2.269866 0.58236,3.222605 -0.43284,0.543274 -1.78854,1.463969 -9.59041,6.51319 -3.5585,2.302983 -4.34746,2.728556 -5.03554,2.71622 -0.44874,-0.008 -1.02083,-0.11279 -1.27126,-0.232764 z m -25.64153,-9.862367 c -0.63171,-0.490107 -1.00187,-1.504759 -0.8451,-2.316544 0.0864,-0.447516 1.91966,-2.675456 5.87106,-7.135158 5.02272,-5.6688022 5.84902,-6.5097298 6.56911,-6.6853421 1.13581,-0.2769967 2.26089,0.2597082 2.69508,1.2856459 0.60735,1.4350632 0.71413,1.2860842 -7.60863,10.6143612 -2.13466,2.39254 -4.04156,4.41083 -4.23755,4.485087 -0.67453,0.255543 -1.96347,0.12472 -2.44397,-0.24805 z m -55.584087,-0.03244 c -0.668591,-0.281796 -1.14112,-0.902748 -5.236611,-6.88156 -4.683998,-6.837945 -4.651354,-6.777094 -4.249945,-7.9233499 0.368924,-1.0535036 1.576462,-1.7779238 2.561016,-1.536405 0.914698,0.2243795 1.931685,1.4830431 6.185951,7.6560029 3.410194,4.94821 3.932022,5.815489 3.932022,6.53509 0,1.546185 -1.780418,2.745358 -3.192433,2.150222 z M 99.132407,21.09739 c -1.061066,-0.504007 -1.95125,-3.232263 -2.155913,-6.60748 -0.234863,-3.873367 0.66576,-9.2140373 1.692184,-10.0346018 1.012522,-0.8094584 2.262282,-0.7463862 3.180902,0.1605271 0.63428,0.6262052 0.67259,1.4667989 0.19707,4.3240091 -0.46737,2.8085076 -0.42323,6.1505306 0.10719,8.1201946 0.6132,2.276521 0.57696,2.70633 -0.30136,3.573453 -0.79828,0.788129 -1.7102,0.943646 -2.720193,0.463898 z"
       id="path18"
       sodipodi:nodetypes="scssscsscssscsscssssscsssssssssssssssssssccscsscssssscsssssssssscssccsscssscsscsssccsssscssssssscssssssssssssssssssssscsssssssssssscsscssssssssssssscsssscscc" /></g></svg>
