<?xml version="1.0" encoding="UTF-8" standalone="no"?>
<!-- Created with Inkscape (http://www.inkscape.org/) -->

<svg
   width="297mm"
   height="120mm"
   viewBox="0 0 297 120"
   version="1.1"
   id="svg1"
   xml:space="preserve"
   inkscape:version="1.4.2 (ebf0e940, 2025-05-08)"
   sodipodi:docname="logo0.svg"
   xmlns:inkscape="http://www.inkscape.org/namespaces/inkscape"
   xmlns:sodipodi="http://sodipodi.sourceforge.net/DTD/sodipodi-0.dtd"
   xmlns="http://www.w3.org/2000/svg"
   xmlns:svg="http://www.w3.org/2000/svg"><sodipodi:namedview
     id="namedview1"
     pagecolor="#ffffff"
     bordercolor="#000000"
     borderopacity="0.25"
     inkscape:showpageshadow="2"
     inkscape:pageopacity="0.0"
     inkscape:pagecheckerboard="0"
     inkscape:deskcolor="#d1d1d1"
     inkscape:document-units="mm"
     inkscape:zoom="0.32"
     inkscape:cx="248.4375"
     inkscape:cy="667.1875"
     inkscape:window-width="1408"
     inkscape:window-height="832"
     inkscape:window-x="259"
     inkscape:window-y="25"
     inkscape:window-maximized="0"
     inkscape:current-layer="layer1"
     showguides="true" /><defs
     id="defs1"><inkscape:path-effect
       effect="bspline"
       id="path-effect1"
       is_visible="true"
       lpeversion="1.3"
       weight="33.333333"
       steps="2"
       helper_size="0"
       apply_no_weight="true"
       apply_with_weight="true"
       only_selected="false"
       uniform="false" /></defs><g
     inkscape:label="Слой 1"
     inkscape:groupmode="layer"
     id="layer1"><g
       id="g19"
       transform="matrix(0.8898785,0,0,0.91025494,116.06429,-118.25476)"
       style="fill:#ffe47c;fill-opacity:1;stroke:#162d50;stroke-opacity:1"><path
         style="fill:#ffe47c;fill-opacity:1;stroke:#162d50;stroke-width:7;stroke-linecap:round;stroke-dasharray:none;stroke-opacity:1"
         d="m 123.06441,229.52246 c 0.47614,-5.17426 -4.91341,-7.35208 -7.79497,-5.48049 -4.83788,3.14223 -6.83796,15.02755 -1.61603,17.53741 8.45293,4.0628 10.68698,-19.27529 10.75122,-18.92596 2.21098,12.02301 2.07237,11.35209 3.80024,18.1973"
         id="use15-3"
         sodipodi:nodetypes="csssc" /><path
         style="fill:#ffe47c;fill-opacity:1;stroke:#162d50;stroke-width:7;stroke-linecap:round;stroke-dasharray:none;stroke-opacity:1"
         d="m 14.244718,161.94863 c 0.498839,28.04604 0.997678,56.0921 1.496517,84.13815 14.436209,0.22445 28.872409,0.44891 36.285402,-10.06621 7.412993,-10.51512 7.80276,-31.76979 3.905079,-45.71015 -3.89768,-13.94037 -12.082646,-20.5663 -20.755158,-22.61262 -8.672512,-2.04633 -17.831876,0.48712 -22.216766,1.46153 -4.3848893,0.97442 -3.9951252,0.38977 -3.6053587,-0.19488"
         id="path1"
         inkscape:path-effect="#path-effect1"
         inkscape:original-d="m 14.244718,161.94863 c 0.498839,28.04604 1.496517,84.13815 1.496517,84.13815 0,0 28.872409,0.44891 43.308627,0.67336 0.389768,-21.25469 0.779535,-42.50936 1.169302,-63.76403 -8.185128,-6.62606 -16.370092,-13.25199 -24.555386,-19.87818 -9.159733,2.53354 -18.319098,5.06698 -27.4786487,7.60048 0.3897757,-0.58466 0.779536,-1.16931 1.169304,-1.75396"
         sodipodi:nodetypes="ccccccc"
         transform="matrix(1.0688368,0,0,1.0444438,-4.2196731,-17.520665)" /><path
         style="fill:#ffe47c;fill-opacity:1;stroke:#162d50;stroke-width:7;stroke-linecap:round;stroke-dasharray:none;stroke-opacity:1"
         d="m 66.812057,225.29776 c 0.659395,6.23248 0.102403,9.13382 1.346627,16.64181"
         id="path2"
         sodipodi:nodetypes="cc" /><path
         style="fill:#ffe47c;fill-opacity:1;stroke:#162d50;stroke-width:7;stroke-linecap:round;stroke-dasharray:none;stroke-opacity:1"
         d="m 68.061813,215.50053 -0.584652,-1.75396"
         id="path3" /><g
         id="g18"
         style="fill:#ffe47c;fill-opacity:1;stroke:#162d50;stroke-opacity:1"><path
           style="fill:#ffe47c;fill-opacity:1;stroke:#162d50;stroke-width:7.77221;stroke-linecap:round;stroke-dasharray:none;stroke-opacity:1"
           d="m 78.24147,157.1104 c 3.629736,18.78599 0.765056,57.05524 1.147544,85.58298"
           id="path4"
           sodipodi:nodetypes="cc" /><path
           style="fill:#ffe47c;fill-opacity:1;stroke:#162d50;stroke-width:7;stroke-linecap:round;stroke-dasharray:none;stroke-opacity:1"
           d="m 92.233169,223.47287 c -3.412297,-2.19593 -7.201901,0.91669 -9.939086,4.09257"
           id="path5"
           sodipodi:nodetypes="cc" /><path
           style="fill:#ffe47c;fill-opacity:1;stroke:#162d50;stroke-width:7;stroke-linecap:round;stroke-dasharray:none;stroke-opacity:1"
           d="m 92.233169,241.56771 c -5.676272,-0.0824 -7.324353,-5.80435 -10.523738,-9.35444"
           id="path6"
           sodipodi:nodetypes="cc" /></g><g
         id="g17"
         transform="translate(-0.58465209,-0.58465209)"
         style="fill:#ffe47c;fill-opacity:1;stroke:#162d50;stroke-opacity:1"><path
           style="fill:#ffe47c;fill-opacity:1;stroke:#162d50;stroke-width:7.30409;stroke-linecap:round;stroke-dasharray:none;stroke-opacity:1"
           d="m 102.89268,158.55366 v 83.38831"
           id="path7"
           sodipodi:nodetypes="cc" /><path
           style="fill:#ffe47c;fill-opacity:1;stroke:#162d50;stroke-width:7;stroke-linecap:round;stroke-dasharray:none;stroke-opacity:1"
           d="m 95.876857,181.31403 c 4.520753,-0.50779 8.624903,-1.8488 14.616293,0.58466"
           id="path8"
           sodipodi:nodetypes="cc" /></g><path
         style="fill:#ffe47c;fill-opacity:1;stroke:#162d50;stroke-width:7;stroke-linecap:round;stroke-dasharray:none;stroke-opacity:1"
         d="m 146.74767,151.71722 -2.92326,90.62108"
         id="path9" /><path
         style="fill:#ffe47c;fill-opacity:1;stroke:#162d50;stroke-width:7;stroke-linecap:round;stroke-dasharray:none;stroke-opacity:1"
         d="m 137.97789,182.11913 c 16.17136,-1.36218 27.27768,-0.19184 30.98656,4.67722"
         id="path10"
         sodipodi:nodetypes="cc" /><path
         style="fill:#ffe47c;fill-opacity:1;stroke:#162d50;stroke-width:7;stroke-linecap:round;stroke-dasharray:none;stroke-opacity:1"
         d="m 139.73185,155.80979 c 12.75903,0.24721 23.06788,-0.90569 46.18751,5.26186"
         id="path11"
         sodipodi:nodetypes="cc" /><g
         id="g16"
         transform="translate(-5.2618688,1.4616302)"
         style="fill:#ffe47c;fill-opacity:1;stroke:#162d50;stroke-opacity:1"><path
           style="fill:#ffe47c;fill-opacity:1;stroke:#162d50;stroke-width:7;stroke-linecap:round;stroke-dasharray:none;stroke-opacity:1"
           d="m 181.90998,220.67056 4.09257,19.14611"
           id="path12"
           sodipodi:nodetypes="cc" /><path
           style="fill:#ffe47c;fill-opacity:1;stroke:#162d50;stroke-width:7;stroke-linecap:round;stroke-dasharray:none;stroke-opacity:1"
           d="m 186.18356,239.54999 c 0.0751,2.65589 -2.04915,-18.67607 6.4593,-16.79754 5.58811,1.23376 3.50791,11.66693 3.50791,16.95491"
           id="path13"
           sodipodi:nodetypes="csc" /></g><path
         style="fill:#ffe47c;fill-opacity:1;stroke:#162d50;stroke-width:7;stroke-linecap:round;stroke-dasharray:none;stroke-opacity:1"
         d="m 153.70963,225.92496 c -0.60827,8.17055 -0.4097,14.72692 5.39623,15.02326 6.78334,0.34622 7.1874,-19.29003 7.30074,-18.70734 1.79218,9.21372 0.6254,3.26306 4.13416,18.41592"
         id="use15"
         sodipodi:nodetypes="cssc" /></g><path
       style="fill:#162d50;stroke-width:0.749037"
       d="M 13.884759,102.3743 C 4.3350586,94.524835 5.0496275,61.931883 18.841035,64.282702 c 0.57472,-8.09e-4 1.804029,-0.709993 2.225011,-1.37909 0.515464,-0.819269 0.313996,-2.782898 0.668205,-4.903133 7.722282,-46.224328 67.795694,-45.34341 75.708856,3.667461 l 0.376513,2.331962 2.55125,0.09681 c 14.34158,0.544242 13.73906,35.576854 2.21713,39.415038 -1.93013,0.64296 -5.534027,0.69356 -6.477856,0.22931 -1.249471,-0.61478 -2.144185,-1.28171 -2.411539,-3.37921 C 93.504608,98.839883 94.113544,71.277708 93.38692,64.231256 88.888598,20.608268 31.956293,13.972688 24.132307,63.708867 c -0.04499,0.28599 -0.136245,25.290943 -0.113865,37.107903 -0.559514,2.46808 -1.472089,2.84056 -2.752385,3.03168 -0.854573,0.12756 -5.712106,-0.10214 -7.381298,-1.47415 z m 28.887803,-0.21503 C 36.708359,100.95024 32.345477,95.902746 31.32952,88.920615 29.990218,79.716284 35.2984,71.1403 42.934361,70.171681 c 5.458798,-0.692448 10.703834,2.872075 13.222442,8.985972 1.419613,3.446109 1.703044,8.004681 0.728396,11.715082 -1.531512,5.83035 -5.168311,9.831545 -10.03394,11.039325 -1.297592,0.32211 -3.142261,0.4339 -4.078697,0.24721 z m 4.348433,-3.608155 c 3.937161,-1.407036 6.863129,-5.427293 7.511479,-10.320727 0.1851,-1.397054 0.09323,-4.212343 -0.177169,-5.429051 -0.276284,-1.243214 -1.139651,-3.334393 -1.840739,-4.458514 -1.406244,-2.254769 -3.871766,-4.136458 -6.180129,-4.716702 -1.741069,-0.437635 -4.176532,-0.224565 -5.697912,0.498486 -3.370676,1.601945 -5.617521,4.588881 -6.558544,8.718867 -0.413298,1.813869 -0.457345,4.429412 -0.103604,6.152142 0.917028,4.46602 3.566205,7.964409 7.111768,9.39152 1.406366,0.566072 1.945861,0.657844 3.502692,0.595825 1.027936,-0.04096 1.644903,-0.150504 2.432163,-0.431846 z m 0.548962,-9.584769 c -0.948989,-0.535834 -1.497087,-1.591366 -1.497087,-2.88311 0,-1.714173 1.080096,-3.011905 2.516779,-3.023894 2.101032,-0.01753 3.270497,3.048351 1.921071,5.036296 -0.714139,1.052046 -1.964125,1.422152 -2.940763,0.870708 z m 23.547258,13.077344 c -2.943141,-0.66236 -5.062554,-1.97116 -7.141633,-4.41017 -1.807686,-2.120643 -3.057391,-4.761202 -3.665931,-7.745921 -0.274099,-1.34442 -0.315834,-1.854326 -0.317513,-3.879816 -0.0011,-2.042521 0.0367,-2.514762 0.30985,-3.80484 2.058215,-9.723019 10.632569,-14.762984 18.209724,-10.70357 1.438503,0.770667 2.961435,2.038679 4.040308,3.363989 5.84539,7.180649 4.865224,18.92642 -2.058526,24.668028 -2.642252,2.19114 -6.367767,3.18935 -9.376279,2.5123 z m 4.766314,-3.492977 c 5.064621,-1.805883 8.308532,-7.644588 7.736218,-13.924354 -0.485479,-5.326822 -3.967575,-9.880681 -8.408898,-10.997075 -2.826567,-0.710489 -6.05475,0.129012 -8.285473,2.154677 -5.287684,4.801615 -5.783292,13.929914 -1.058531,19.496324 1.654319,1.948996 3.541348,3.140328 5.748577,3.629229 1.039274,0.230205 3.102757,0.05672 4.268107,-0.358801 z M 68.976156,84.165115 c -0.583517,-0.198525 -1.480397,-1.1706 -1.647068,-1.78515 -0.178495,-0.658178 -0.184277,-1.684209 -0.01301,-2.315618 0.2084,-0.768424 1.038185,-1.630117 1.777615,-1.845985 1.962275,-0.572866 3.74176,1.956597 2.916549,4.145737 -0.55401,1.469702 -1.812352,2.216664 -3.034054,1.801016 z M 33.882875,64.137073 c -0.551872,-0.364451 -0.741392,-1.217283 -0.441916,-1.988598 0.250189,-0.644377 2.355424,-2.476526 4.061857,-3.534964 2.133697,-1.323462 4.03321,-1.828514 6.872349,-1.827273 3.059403,0.0017 3.742078,0.243449 3.983223,1.412641 0.08819,0.427636 -0.224714,1.26782 -0.540745,1.451934 -0.106989,0.06229 -1.32632,0.116882 -2.709627,0.121249 -2.189993,0.0066 -2.661426,0.05073 -3.647053,0.339347 -2.116498,0.619698 -3.880967,1.679714 -5.648945,3.393646 -0.949959,0.920921 -1.312053,1.03955 -1.929143,0.632018 z m 48.647697,-0.91079 c -0.228008,-0.144923 -0.818778,-0.641016 -1.312818,-1.102431 -1.049957,-0.980627 -2.939858,-2.131824 -4.131958,-2.516915 -0.685969,-0.221593 -1.281095,-0.27084 -3.273965,-0.27089 l -2.435603,-7.5e-5 -0.289099,-0.408927 c -0.422623,-0.59781 -0.402289,-1.517903 0.04513,-2.039488 0.447901,-0.522205 1.262653,-0.696667 3.258834,-0.697807 1.682671,-8.77e-4 2.32656,0.102568 3.831569,0.616029 1.766308,0.60261 4.085986,2.160043 5.426249,3.643192 0.878126,0.971745 0.901994,2.121786 0.05703,2.748706 -0.483595,0.358806 -0.649485,0.362838 -1.175333,0.02859 z M 54.141209,56.50511 c -0.522175,-0.635456 -0.484401,-1.360628 0.135751,-2.606218 0.921083,-1.850016 1.851223,-4.487364 2.518964,-7.142363 0.371385,-1.47664 0.588207,-3.539482 0.588207,-5.59615 0,-1.305772 0.0013,-1.312857 0.422532,-1.825048 0.379748,-0.462127 0.471635,-0.506171 0.90755,-0.435018 1.016249,0.165878 1.252029,0.867112 1.141046,3.393623 -0.140432,3.196651 -0.606997,5.622635 -1.721845,8.953047 -0.714499,2.134445 -1.749699,4.549917 -2.197883,5.128399 -0.367044,0.473744 -0.505375,0.555761 -0.937404,0.555761 -0.400485,0 -0.580283,-0.08939 -0.856918,-0.426033 z M 66.96548,54.69675 c -0.491331,-0.199784 -0.884719,-0.984964 -0.773675,-1.544202 0.03868,-0.194439 0.30747,-0.948682 0.597473,-1.676098 0.600657,-1.506652 0.98799,-3.267418 1.093688,-4.971779 0.08537,-1.376557 -0.143297,-2.972231 -0.684567,-4.777076 -0.451576,-1.505744 -0.44562,-1.764975 0.05454,-2.373618 0.311616,-0.379216 0.507971,-0.495542 0.836469,-0.495542 0.671543,0 1.086874,0.567036 1.573767,2.148618 1.196915,3.887813 1.003798,7.904055 -0.565931,11.77028 -0.733013,1.805365 -1.255437,2.275753 -2.131753,1.919417 z M 39.114225,52.783956 c -0.226745,-0.275926 -0.293971,-0.51077 -0.293971,-1.026857 0,-0.824739 0.333074,-1.289859 1.094077,-1.5278 3.646951,-1.14029 6.708772,-4.402388 8.708578,-9.27821 0.333441,-0.81299 0.750704,-1.616424 0.927236,-1.785409 0.628129,-0.601266 1.51448,-0.259933 1.844764,0.710418 0.131515,0.386382 0.115938,0.563446 -0.119028,1.353107 -0.843188,2.833727 -2.612504,5.930504 -4.519892,7.911022 -1.298121,1.347885 -2.171985,2.045998 -3.601676,2.877281 -1.434131,0.833868 -2.227541,1.120052 -3.111897,1.122464 -0.514805,0.0014 -0.689565,-0.06562 -0.928191,-0.356016 z M 25.759576,25.685927 c -2.01243,-1.627189 -3.777494,-3.141901 -3.922372,-3.366026 -0.648554,-1.003366 -0.09104,-2.409192 0.954999,-2.408131 0.473293,4.8e-4 0.840119,0.259675 4.231001,2.989571 2.053976,1.653594 3.809264,3.167337 3.928741,3.388106 0.155536,0.287404 0.200723,0.581229 0.161491,1.050116 -0.07213,0.862179 -0.487674,1.318886 -1.192565,1.310715 -0.449949,-0.0052 -0.883839,-0.314301 -4.161295,-2.964351 z m 60.059648,2.366117 c -0.305052,-0.180129 -0.649162,-0.86074 -0.649162,-1.28395 0,-0.79834 0.338985,-1.143211 4.102448,-4.173698 4.012642,-3.231115 4.216515,-3.346276 4.924569,-2.78171 0.576865,0.459978 0.733817,1.530556 0.318576,2.172981 -0.236784,0.366325 -0.978405,0.987143 -5.246348,4.391799 -1.94665,1.552886 -2.378244,1.839846 -2.754651,1.83153 -0.24548,-0.0055 -0.558437,-0.07605 -0.695432,-0.156952 z M 71.792253,21.401917 c -0.345571,-0.330476 -0.548063,-1.014649 -0.462304,-1.56203 0.04726,-0.301757 1.050133,-1.804042 3.211712,-4.811189 2.747634,-3.822436 3.199653,-4.389468 3.593572,-4.507882 0.621335,-0.186777 1.2368,0.175119 1.47432,0.866902 0.332245,0.967654 0.390659,0.867199 -4.162233,7.157194 -1.167747,1.613273 -2.2109,2.974191 -2.318114,3.024263 -0.368996,0.172311 -1.0741,0.0841 -1.336953,-0.167258 z m -30.40678,-0.02187 c -0.365747,-0.190017 -0.624239,-0.608722 -2.864642,-4.640193 -2.562339,-4.610781 -2.544481,-4.56975 -2.324894,-5.342663 0.201817,-0.710371 0.862389,-1.198842 1.40098,-1.035988 0.500378,0.151298 1.056712,1.000007 3.38397,5.162393 1.865517,3.336544 2.150978,3.921345 2.150978,4.406567 0,1.042582 -0.973962,1.851175 -1.746392,1.44988 z m 16.259196,-2.234531 c -0.580447,-0.339849 -1.067413,-2.179493 -1.179373,-4.455379 -0.12848,-2.611786 0.364198,-6.2129646 0.925695,-6.7662656 0.55389,-0.5458123 1.237561,-0.5032832 1.740084,0.1082428 0.346977,0.4222459 0.367934,0.9890524 0.107804,2.9156498 -0.25567,1.893759 -0.231524,4.147263 0.05864,5.475394 0.335445,1.535042 0.31562,1.82486 -0.164857,2.409555 -0.436692,0.53143 -0.935549,0.636293 -1.488057,0.312803 z"
       id="path18"
       sodipodi:nodetypes="scssscsscssscsscssssscsssssssssssssssssssccscsscssssscsssssssssscssccsscssscsscsssccsssscssssssscssssssssssssssssssssscsssssssssssscsscssssssssssssscsssscscc" /></g></svg>
