<?xml version="1.0" encoding="UTF-8" standalone="no"?>
<!-- Created with Inkscape (http://www.inkscape.org/) -->

<svg
   width="297mm"
   height="120mm"
   viewBox="0 0 297 120"
   version="1.1"
   id="svg1"
   xml:space="preserve"
   inkscape:version="1.4.2 (ebf0e940, 2025-05-08)"
   sodipodi:docname="logo.svg"
   xmlns:inkscape="http://www.inkscape.org/namespaces/inkscape"
   xmlns:sodipodi="http://sodipodi.sourceforge.net/DTD/sodipodi-0.dtd"
   xmlns:xlink="http://www.w3.org/1999/xlink"
   xmlns="http://www.w3.org/2000/svg"
   xmlns:svg="http://www.w3.org/2000/svg"><sodipodi:namedview
     id="namedview1"
     pagecolor="#ffffff"
     bordercolor="#000000"
     borderopacity="0.25"
     inkscape:showpageshadow="2"
     inkscape:pageopacity="0.0"
     inkscape:pagecheckerboard="0"
     inkscape:deskcolor="#d1d1d1"
     inkscape:document-units="mm"
     inkscape:zoom="0.9050967"
     inkscape:cx="743.01453"
     inkscape:cy="241.41067"
     inkscape:window-width="1664"
     inkscape:window-height="832"
     inkscape:window-x="3"
     inkscape:window-y="25"
     inkscape:window-maximized="0"
     inkscape:current-layer="layer1"
     showguides="true"><sodipodi:guide
       position="243.36144,15.931928"
       orientation="0,-1"
       id="guide1"
       inkscape:locked="false" /></sodipodi:namedview><defs
     id="defs1"><inkscape:path-effect
       effect="bspline"
       id="path-effect1"
       is_visible="true"
       lpeversion="1.3"
       weight="33.333333"
       steps="2"
       helper_size="0"
       apply_no_weight="true"
       apply_with_weight="true"
       only_selected="false"
       uniform="false" /></defs><g
     inkscape:label="Слой 1"
     inkscape:groupmode="layer"
     id="layer1"><path
       style="fill:#ffe47c;fill-opacity:1;stroke:#162d50;stroke-width:5;stroke-linecap:round;stroke-dasharray:none;stroke-opacity:1"
       d="m 262.70207,90.961519 c 0.42371,-4.709896 -4.37234,-6.692267 -6.93657,-4.988643 -4.30513,2.86023 -5.93879,12.948085 -1.29191,15.232704 7.52208,3.69818 9.36395,-16.814618 9.42112,-16.496639 1.9675,10.944005 2.13648,10.771784 3.67407,17.002679"
       id="use15-3"
       sodipodi:nodetypes="csssc" /><path
       style="fill:#ffe47c;fill-opacity:1;stroke:#162d50;stroke-width:5.25805;stroke-linecap:round;stroke-dasharray:none;stroke-opacity:1"
       d="m 14.244718,161.94863 c 0.345167,28.71225 0.690333,57.42452 1.0355,86.13678 14.692329,0.17321 29.38465,0.34641 36.874479,-10.50181 7.489828,-10.84822 7.777148,-32.71786 3.828243,-46.9657 -3.948904,-14.24785 -12.13387,-20.87378 -20.370969,-22.97135 -8.237098,-2.09757 -16.525558,0.33334 -22.165517,2.38398 -5.6399596,2.05063 -8.6309507,3.72083 -11.62196,5.39104"
       id="path1"
       inkscape:path-effect="#path-effect1"
       inkscape:original-d="m 14.244718,161.94863 c 0.345167,28.71225 1.0355,86.13678 1.0355,86.13678 0,0 29.38465,0.34641 44.076988,0.51962 0.28732,-21.86965 0.574639,-43.73929 0.861958,-65.60892 -8.185128,-6.62606 -16.370094,-13.25199 -24.555386,-19.87818 -8.288905,2.43105 -16.577365,4.86196 -24.866221,7.293 -2.9910626,1.67023 -5.9820537,3.34043 -8.973063,5.01064"
       sodipodi:nodetypes="ccccccc"
       transform="matrix(0.95113489,0,0,0.95071013,112.30929,-134.20303)" /><path
       style="fill:#ffe47c;fill-opacity:1;stroke:#162d50;stroke-width:5;stroke-linecap:round;stroke-dasharray:none;stroke-opacity:1"
       d="m 175.5189,86.823639 c 0.29446,6.257793 -0.63969,8.021776 -0.11713,14.563641"
       id="path2"
       sodipodi:nodetypes="cc" /><path
       style="fill:#ffe47c;fill-opacity:1;stroke:#162d50;stroke-width:6.29376;stroke-linecap:round;stroke-dasharray:none;stroke-opacity:1"
       d="m 176.19254,76.15171 -0.0818,0.157401"
       id="path3"
       sodipodi:nodetypes="cc" /><g
       id="g18"
       style="fill:#ffe47c;fill-opacity:1;stroke:#162d50;stroke-opacity:1"
       transform="matrix(0.8898785,0,0,0.91025494,116.06429,-118.25476)"><path
         style="fill:#ffe47c;fill-opacity:1;stroke:#162d50;stroke-width:5.5555;stroke-linecap:round;stroke-dasharray:none;stroke-opacity:1"
         d="m 89.44091,224.43632 c -17.045091,-3.96224 -18.042436,20.18553 0.0802,16.29616"
         id="path5"
         sodipodi:nodetypes="cc" /></g><g
       id="g17"
       transform="matrix(0.8898785,0,0,0.91025494,115.01485,-118.78694)"
       style="fill:#ffe47c;fill-opacity:1;stroke:#162d50;stroke-opacity:1"><path
         style="fill:#ffe47c;fill-opacity:1;stroke:#162d50;stroke-width:5.5555;stroke-linecap:round;stroke-dasharray:none;stroke-opacity:1"
         d="m 99.443419,158.87481 v 83.38831"
         id="path7"
         sodipodi:nodetypes="cc" /><path
         style="fill:#ffe47c;fill-opacity:1;stroke:#162d50;stroke-width:5.5555;stroke-linecap:round;stroke-dasharray:none;stroke-opacity:1"
         d="m 90.45659,181.05384 c 4.786272,-0.50779 14.70561,-0.40364 21.02206,-0.37879"
         id="path8"
         sodipodi:nodetypes="cc" /></g><path
       style="fill:#ffe47c;fill-opacity:1;stroke:#162d50;stroke-width:5;stroke-linecap:round;stroke-dasharray:none;stroke-opacity:1"
       d="m 246.65189,19.846589 -2.60135,82.488281"
       id="path9" /><path
       style="fill:#ffe47c;fill-opacity:1;stroke:#162d50;stroke-width:5;stroke-linecap:round;stroke-dasharray:none;stroke-opacity:1"
       d="m 238.11703,45.766122 c 14.97519,-0.21679 25.00464,1.579332 28.30509,6.011418"
       id="path10"
       sodipodi:nodetypes="cc" /><path
       style="fill:#ffe47c;fill-opacity:1;stroke:#162d50;stroke-width:5;stroke-linecap:round;stroke-dasharray:none;stroke-opacity:1"
       d="m 240.40866,23.571871 c 11.35399,0.225024 20.52761,-0.824409 41.10127,4.789634"
       id="path11"
       sodipodi:nodetypes="cc" /><g
       id="g16"
       transform="matrix(0.8898785,0,0,0.91025494,111.38187,-116.9243)"
       style="fill:#ffe47c;fill-opacity:1;stroke:#162d50;stroke-opacity:1"><path
         style="fill:#ffe47c;fill-opacity:1;stroke:#162d50;stroke-width:7;stroke-linecap:round;stroke-dasharray:none;stroke-opacity:1"
         d="m 181.90998,220.67056 3.59982,18.50382"
         id="path12"
         sodipodi:nodetypes="cc" /><path
         style="fill:#ffe47c;fill-opacity:1;stroke:#162d50;stroke-width:5.5555;stroke-linecap:round;stroke-dasharray:none;stroke-opacity:1"
         d="m 186.18356,239.54999 c 0.0751,2.65589 -1.93252,-18.84523 6.7878,-19.04557 9.20162,-0.21141 5.15042,13.59381 4.16491,19.36351"
         id="path13"
         sodipodi:nodetypes="csc" /></g><path
       style="fill:#162d50;stroke-width:0.749037"
       d="M 13.884759,102.3743 C 4.3350586,94.524835 5.0496275,61.931883 18.841035,64.282702 c 0.57472,-8.09e-4 1.804029,-0.709993 2.225011,-1.37909 0.515464,-0.819269 0.313996,-2.782898 0.668205,-4.903133 7.722282,-46.224328 67.795694,-45.34341 75.708856,3.667461 l 0.376513,2.331962 2.55125,0.09681 c 14.34158,0.544242 13.73906,35.576854 2.21713,39.415038 -1.93013,0.64296 -5.534027,0.69356 -6.477856,0.22931 -1.249471,-0.61478 -2.144185,-1.28171 -2.411539,-3.37921 C 93.504608,98.839883 94.113544,71.277708 93.38692,64.231256 88.888598,20.608268 31.956293,13.972688 24.132307,63.708867 c -0.04499,0.28599 -0.136245,25.290943 -0.113865,37.107903 -0.559514,2.46808 -1.472089,2.84056 -2.752385,3.03168 -0.854573,0.12756 -5.712106,-0.10214 -7.381298,-1.47415 z M 42.772562,96.338437 C 36.708359,95.129407 32.345477,90.081913 31.32952,83.099782 29.990218,73.895451 35.2984,65.319467 42.934361,64.350848 c 5.458798,-0.692448 10.703834,2.872075 13.222442,8.985972 1.419613,3.446109 1.703044,8.004681 0.728396,11.715082 -1.531512,5.83035 -5.168311,9.831545 -10.03394,11.039325 -1.297592,0.32211 -3.142261,0.4339 -4.078697,0.24721 z m 4.348433,-3.608155 c 4.6242,-2.052986 6.863129,-5.427293 7.511479,-10.320727 0.191083,-1.442208 0.502304,-5.846669 -2.017908,-9.887565 -1.406244,-2.254769 -3.871766,-4.136458 -6.180129,-4.716702 -1.741069,-0.437635 -4.176532,-0.224565 -5.697912,0.498486 -6.805348,3.234305 -7.401562,11.270039 -6.662148,14.871009 0.917028,4.46602 3.566205,7.964409 7.111768,9.39152 3.209199,1.291725 5.651029,0.289986 5.93485,0.163979 z m -1.038538,-9.584769 c -0.948989,-0.535834 -1.497087,-1.591366 -1.497087,-2.88311 0,-1.714173 1.080096,-3.011905 2.516779,-3.023894 2.101032,-0.01753 3.270497,3.048351 1.921071,5.036296 -0.714139,1.052046 -1.964125,1.422152 -2.940763,0.870708 z m 25.134758,13.077344 c -2.943141,-0.66236 -5.062554,-1.97116 -7.141633,-4.41017 -1.807686,-2.120643 -3.057391,-4.761202 -3.665931,-7.745921 -0.274099,-1.34442 -0.315834,-1.854326 -0.317513,-3.879816 -0.0011,-2.042521 0.0367,-2.514762 0.30985,-3.80484 2.058215,-9.723019 10.632569,-14.762984 18.209724,-10.70357 1.438503,0.770667 2.961435,2.038679 4.040308,3.363989 5.84539,7.180649 4.865224,18.92642 -2.058526,24.668028 -2.642252,2.19114 -6.367767,3.18935 -9.376279,2.5123 z m 4.766314,-3.492977 c 5.064621,-1.805883 8.308532,-7.644588 7.736218,-13.924354 -0.485479,-5.326822 -3.967575,-9.880681 -8.408898,-10.997075 -2.826567,-0.710489 -6.05475,0.129012 -8.285473,2.154677 -5.287684,4.801615 -5.783292,13.929914 -1.058531,19.496324 1.654319,1.948996 3.541348,3.140328 5.748577,3.629229 1.039274,0.230205 3.102757,0.05672 4.268107,-0.358801 z M 69.505323,80.990115 c -0.616364,0 -1.62656,-1.316763 -1.793231,-1.931313 -0.527674,-1.945731 0.501219,-3.603939 1.910768,-4.01544 1.962275,-0.572866 3.74176,1.956597 2.916549,4.145737 -0.55401,1.469702 -1.743582,1.801016 -3.034054,1.801016 z M 33.882875,58.31624 c -0.551872,-0.364451 -0.741392,-1.217283 -0.441916,-1.988598 0.250189,-0.644377 2.355424,-2.476526 4.061857,-3.534964 2.133697,-1.323462 4.03321,-1.828514 6.872349,-1.827273 3.059403,0.0017 3.742078,0.243449 3.983223,1.412641 0.08819,0.427636 -0.224714,1.26782 -0.540745,1.451934 -0.106989,0.06229 -1.32632,0.116882 -2.709627,0.121249 -2.189993,0.0066 -2.661426,0.05073 -3.647053,0.339347 -2.116498,0.619698 -3.880967,1.679714 -5.648945,3.393646 -0.949959,0.920921 -1.312053,1.03955 -1.929143,0.632018 z m 48.647697,-0.91079 c -0.246882,0.109725 -0.818778,-0.641016 -1.312818,-1.102431 -1.049957,-0.980627 -2.939858,-2.131824 -4.131958,-2.516915 -0.685969,-0.221593 -1.281095,-0.27084 -3.273965,-0.27089 l -2.435603,-7.5e-5 -0.289099,-0.408927 c -0.42263,-0.597805 -0.402289,-1.517903 0.04513,-2.039488 0.447901,-0.522205 1.262653,-0.696667 3.258834,-0.697807 1.682671,-8.77e-4 2.32656,0.102568 3.831569,0.616029 1.766308,0.60261 4.085986,2.160043 5.426249,3.643192 0.878126,0.971745 0.901994,2.121786 0.05703,2.748706 -0.483595,0.358806 -0.649485,0.362838 -1.175333,0.02859 z M 25.759576,25.685927 c -2.01243,-1.627189 -3.777494,-3.141901 -3.922372,-3.366026 -0.648554,-1.003366 -0.09104,-2.409192 0.954999,-2.408131 0.473293,4.8e-4 0.840119,0.259675 4.231001,2.989571 2.053976,1.653594 3.809264,3.167337 3.928741,3.388106 0.155536,0.287404 0.200723,0.581229 0.161491,1.050116 -0.07213,0.862179 -0.487674,1.318886 -1.192565,1.310715 -0.449949,-0.0052 -0.883839,-0.314301 -4.161295,-2.964351 z m 60.059648,2.366117 c -0.305052,-0.180129 -0.649162,-0.86074 -0.649162,-1.28395 0,-0.79834 0.338985,-1.143211 4.102448,-4.173698 4.012642,-3.231115 4.216515,-3.346276 4.924569,-2.78171 0.576865,0.459978 0.733817,1.530556 0.318576,2.172981 -0.236784,0.366325 -0.978405,0.987143 -5.246348,4.391799 -1.94665,1.552886 -2.378244,1.839846 -2.754651,1.83153 -0.24548,-0.0055 -0.558437,-0.07605 -0.695432,-0.156952 z M 71.792253,21.401917 c -0.345571,-0.330476 -0.548063,-1.014649 -0.462304,-1.56203 0.04726,-0.301757 1.050133,-1.804042 3.211712,-4.811189 2.747634,-3.822436 3.199653,-4.389468 3.593572,-4.507882 0.621335,-0.186777 1.2368,0.175119 1.47432,0.866902 0.332245,0.967654 0.390659,0.867199 -4.162233,7.157194 -1.167747,1.613273 -2.2109,2.974191 -2.318114,3.024263 -0.368996,0.172311 -1.0741,0.0841 -1.336953,-0.167258 z m -30.40678,-0.02187 c -0.365747,-0.190017 -0.624239,-0.608722 -2.864642,-4.640193 -2.562339,-4.610781 -2.544481,-4.56975 -2.324894,-5.342663 0.201817,-0.710371 0.862389,-1.198842 1.40098,-1.035988 0.500378,0.151298 1.056712,1.000007 3.38397,5.162393 1.865517,3.336544 2.150978,3.921345 2.150978,4.406567 0,1.042582 -0.973962,1.851175 -1.746392,1.44988 z m 16.259196,-2.234531 c -0.580447,-0.339849 -1.067413,-2.179493 -1.179373,-4.455379 -0.12848,-2.611786 0.364198,-6.2129646 0.925695,-6.7662656 0.55389,-0.5458123 1.237561,-0.5032832 1.740084,0.1082428 0.346977,0.4222459 0.367934,0.9890524 0.107804,2.9156498 -0.25567,1.893759 -0.231524,4.147263 0.05864,5.475394 0.335445,1.535042 0.31562,1.82486 -0.164857,2.409555 -0.436692,0.53143 -0.935549,0.636293 -1.488057,0.312803 z"
       id="path18"
       sodipodi:nodetypes="scssscsscssscsscssssscssssssssssssscsccscsscssssscssssssscscssccsscssscsscsssccsssssssssssssscsssssssssssssssscsssscscccs" /><use
       x="0"
       y="0"
       xlink:href="#use15-3"
       id="use1"
       transform="translate(-39.388238,-0.29232604)" /></g></svg>
