<?xml version="1.0" encoding="UTF-8" standalone="no"?>
<!-- Created with Inkscape (http://www.inkscape.org/) -->

<svg
   width="10mm"
   height="10mm"
   viewBox="0 0 10 10"
   version="1.1"
   id="svg1"
   inkscape:version="1.4.2 (ebf0e940, 2025-05-08)"
   sodipodi:docname="microphone0.svg"
   xml:space="preserve"
   xmlns:inkscape="http://www.inkscape.org/namespaces/inkscape"
   xmlns:sodipodi="http://sodipodi.sourceforge.net/DTD/sodipodi-0.dtd"
   xmlns="http://www.w3.org/2000/svg"
   xmlns:svg="http://www.w3.org/2000/svg"><sodipodi:namedview
     id="namedview1"
     pagecolor="#ffffff"
     bordercolor="#000000"
     borderopacity="0.25"
     inkscape:showpageshadow="2"
     inkscape:pageopacity="0.0"
     inkscape:pagecheckerboard="0"
     inkscape:deskcolor="#d1d1d1"
     inkscape:document-units="mm"
     inkscape:zoom="9.0738004"
     inkscape:cx="6.3369258"
     inkscape:cy="18.569948"
     inkscape:window-width="1624"
     inkscape:window-height="704"
     inkscape:window-x="64"
     inkscape:window-y="25"
     inkscape:window-maximized="0"
     inkscape:current-layer="svg1" /><defs
     id="defs1" /><ellipse
     style="fill:#d11b00;fill-opacity:1;stroke-width:0.186636"
     id="path1"
     cx="5.1028318"
     cy="4.7966623"
     rx="3.2074945"
     ry="3.2512331" /><g
     inkscape:label="Слой 1"
     inkscape:groupmode="layer"
     id="layer1"><path
       style="fill:#000000"
       d="M 8.0741411,7.2881997 C 7.9832131,7.2521777 7.8648849,7.2070307 7.6707701,7.1342983 7.2768541,6.9867033 7.0648356,6.9060401 7.0615052,6.9025014 7.0595952,6.9004714 7.0920652,6.8413844 7.1336592,6.7711949 7.1752542,6.7010059 7.2092002,6.641003 7.2090952,6.6378557 7.2089906,6.6347057 7.0668838,6.5520427 6.8933025,6.4541536 6.6379326,6.2841528 6.4053527,6.2326877 6.7888227,6.2617485 c 0.037602,0.00245 0.1529733,0.010633 0.2563799,0.018193 0.1034065,0.00756 0.2703098,0.019482 0.3708962,0.026495 0.1005863,0.00701 0.1828843,0.015175 0.1828843,0.01814 0,0.00297 -0.014029,0.047227 -0.031177,0.09836 -0.017147,0.051133 -0.047517,0.1422404 -0.067489,0.2024617 l -0.036313,0.1094931 0.1204745,0.1018514 c 0.066261,0.056018 0.2127712,0.1796351 0.3255783,0.2747041 0.2122039,0.1788362 0.2366483,0.2004339 0.2254244,0.1991717 -0.00366,-4.111e-4 -0.031259,-0.010498 -0.061341,-0.022416 z m -0.078623,-0.063121 c 0,-0.00351 -0.00434,-0.010203 -0.00965,-0.014882 -0.010714,-0.00945 -0.021672,0.00129 -0.014282,0.013992 0.00521,0.00895 0.023929,0.00965 0.023929,8.895e-4 z M 7.4710614,7.0353128 c -0.00197,-0.00799 -0.00476,-0.014529 -0.0062,-0.014529 -0.00144,0 -0.00262,0.00654 -0.00262,0.014529 0,0.00799 0.00279,0.014529 0.0062,0.014529 0.00341,0 0.00459,-0.00654 0.00262,-0.014529 z m 0.024982,-0.07865 c -0.00417,-0.02067 -0.010766,-0.037582 -0.014653,-0.037582 -0.00402,0 -0.00525,0.00704 -0.00285,0.016345 0.00232,0.00899 0.00618,0.028807 0.00858,0.044039 0.00254,0.016154 0.00689,0.025003 0.010434,0.021237 0.00354,-0.00377 0.00292,-0.022117 -0.00151,-0.044039 z m 0.027732,0.010066 c 0,-0.00176 -0.00308,-0.00522 -0.00684,-0.00769 -0.00376,-0.00247 -0.00684,-0.00103 -0.00684,0.0032 0,0.00423 0.00308,0.00769 0.00684,0.00769 0.00376,0 0.00684,-0.00144 0.00684,-0.0032 z M 7.1182373,6.8886608 c -0.00218,-0.0058 -0.0038,-0.00407 -0.00413,0.00439 -2.969e-4,0.00766 0.00132,0.011949 0.00359,0.00953 0.00227,-0.00241 0.00251,-0.00868 5.397e-4,-0.013924 z M 7.4588252,6.6212371 c -0.00232,-0.004 -0.00712,-0.00726 -0.010659,-0.00726 -0.00354,0 -0.00643,0.00327 -0.00643,0.00726 0,0.004 0.0048,0.00726 0.010659,0.00726 0.00586,0 0.00876,-0.00327 0.00643,-0.00726 z m -0.2380359,-0.03042 c -0.00218,-0.0058 -0.0038,-0.00407 -0.00413,0.00439 -2.968e-4,0.00766 0.00132,0.011948 0.00359,0.00953 0.00227,-0.00241 0.00251,-0.00868 5.398e-4,-0.013924 z m -0.182427,-0.078547 c 0,-0.004 -0.00308,-0.00726 -0.00684,-0.00726 -0.00376,0 -0.00684,0.00327 -0.00684,0.00726 0,0.004 0.00308,0.00726 0.00684,0.00726 0.00376,0 0.00684,-0.00327 0.00684,-0.00726 z M 6.8606056,6.3419834 c 0,-0.00176 -0.00308,-0.00522 -0.00684,-0.00769 -0.00376,-0.00247 -0.00684,-0.00103 -0.00684,0.0032 0,0.00423 0.00308,0.00769 0.00684,0.00769 0.00376,0 0.00684,-0.00144 0.00684,-0.0032 z M 1.7882725,6.4876925 c 0.01557,-0.015213 0.210442,-0.1375521 0.220015,-0.1381209 0.007,-4.139e-4 0.01787,-0.00761 0.02423,-0.015999 0.0064,-0.00839 0.09617,-0.070042 0.199578,-0.1370142 0.325533,-0.2108345 0.289253,-0.1836128 0.284954,-0.213806 -0.0021,-0.014418 -0.02083,-0.1063063 -0.04173,-0.2041952 -0.0209,-0.097889 -0.03803,-0.1837006 -0.03806,-0.1906927 -7.6e-5,-0.01657 0.01137,-0.016056 0.04295,0.00193 0.02295,0.01307 0.02616,0.013395 0.0299,0.00303 0.0036,-0.00993 0.01324,-0.010976 0.06649,-0.00723 0.03426,0.00241 0.206889,0.012539 0.383621,0.02251 0.401733,0.022666 0.545022,0.031599 0.5474,0.034126 0.001,0.00109 -0.05404,0.024498 -0.12236,0.052024 -0.06832,0.027526 -0.133451,0.054198 -0.144732,0.059273 -0.01128,0.00507 -0.03743,0.015866 -0.05811,0.023981 -0.09202,0.036108 -0.391745,0.1606248 -0.395023,0.1641082 -0.002,0.00212 0.02456,0.066816 0.05902,0.143764 0.03446,0.076948 0.06032,0.1406387 0.05746,0.1415354 -0.01449,0.00456 -1.110048,0.2635637 -1.11483,0.2635637 -0.002,0 -0.0023,-0.00125 -7.64e-4,-0.00278 z m 0.650837,-0.1916849 c 0.01284,-0.014239 0.01698,-0.024858 0.01416,-0.036322 -0.0058,-0.023392 -0.02392,-0.021026 -0.02145,0.00279 0.0018,0.01719 -0.0024,0.022665 -0.02777,0.036821 -0.004,0.00222 0.0062,0.016828 0.01177,0.016828 0.0028,0 0.01332,-0.00905 0.0233,-0.020121 z m 0.326545,-0.1277662 c -0.0091,-0.0097 -0.02444,0.005 -0.01755,0.016847 0.0036,0.0061 0.0074,0.00596 0.01473,-5.12e-4 0.0069,-0.00608 0.0078,-0.011081 0.0028,-0.016335 z m 0.02337,-0.043512 c 0.0075,-0.00583 0.0098,-0.011637 0.0056,-0.014358 -0.0038,-0.00251 -0.01246,0.00189 -0.01919,0.00979 -0.01393,0.016351 -0.0053,0.019247 0.01355,0.00457 z m -0.07582,-0.1298535 c 0.0054,-0.00914 0.0052,-0.014833 -6.87e-4,-0.021122 -0.01062,-0.01129 -0.02919,0.00408 -0.02919,0.024161 0,0.017238 0.01901,0.015306 0.02988,-0.00304 z m -0.173452,-0.088762 c 0,-0.00576 -0.0027,-0.012277 -0.0061,-0.014487 -0.007,-0.00462 -0.01552,0.014064 -0.0094,0.020613 0.0073,0.0078 0.01548,0.00457 0.01548,-0.00613 z m 0.06837,-0.1057638 c 0,-0.004 -0.0031,-0.00726 -0.0068,-0.00726 -0.0038,0 -0.0068,0.00327 -0.0068,0.00726 0,0.004 0.0031,0.00726 0.0068,0.00726 0.0038,0 0.0068,-0.00327 0.0068,-0.00726 z m 0.192683,-0.037896 c -0.0049,-0.00521 -0.0081,-0.00564 -0.0081,-0.00109 0,0.0097 0.0081,0.018288 0.01265,0.013439 0.0019,-0.00206 -1.08e-4,-0.00762 -0.0046,-0.01235 z m -0.08323,-0.00924 c -0.0085,-0.010933 -0.02057,-0.0086 -0.02057,0.00398 0,0.00376 0.0065,0.00684 0.01451,0.00684 0.01208,0 0.01309,-0.00182 0.0061,-0.010817 z m 0.198205,0.00355 c 0,-0.004 -0.0031,-0.00726 -0.0068,-0.00726 -0.0038,0 -0.0068,0.00327 -0.0068,0.00726 0,0.004 0.0031,0.00726 0.0068,0.00726 0.0038,0 0.0068,-0.00327 0.0068,-0.00726 z m -0.239288,-0.00727 c 0,-0.004 -0.0031,-0.00726 -0.0068,-0.00726 -0.0038,0 -0.0068,0.00327 -0.0068,0.00726 0,0.004 0.0031,0.00726 0.0068,0.00726 0.0038,0 0.0068,-0.00327 0.0068,-0.00726 z m 0.336712,-0.025426 c -0.0025,-0.010724 -0.02401,-0.00883 -0.02754,0.00243 -0.0021,0.00664 0.002,0.00893 0.0131,0.00726 0.0089,-0.00134 0.01538,-0.0057 0.01443,-0.00969 z m 0.182884,0.00363 c 0,-0.004 -0.0031,-0.00726 -0.0068,-0.00726 -0.0038,0 -0.0068,0.00327 -0.0068,0.00726 0,0.004 0.0031,0.00726 0.0068,0.00726 0.0038,0 0.0068,-0.00327 0.0068,-0.00726 z m 4.3174879,-0.16163 c -0.00856,-0.026464 -0.032926,-0.1345979 -0.033143,-0.1471058 -1.384e-4,-0.00799 -0.00216,-0.016164 -0.0045,-0.018161 -0.00233,-0.002 -0.014036,-0.044197 -0.026005,-0.093776 C 7.4379594,5.2574463 7.4270934,5.2157393 7.4257804,5.2143443 7.4236404,5.2120643 6.8760085,5.3330764 6.7639136,5.360594 6.6414394,5.304153 6.4735978,5.4990231 6.7990736,5.2187902 6.8987196,5.1334802 7.0140908,5.0344386 7.0554535,4.9986964 7.2560074,4.8253944 7.2912443,4.7969369 7.2989843,4.8020197 c 0.00495,0.00325 0.00632,0.00224 0.00351,-0.00259 -0.00472,-0.00811 0.2000875,-0.1904597 0.2139073,-0.1904597 0.00405,0 0.00737,-0.00291 0.00737,-0.00647 0,-0.012343 0.1299718,-0.1180579 0.1331019,-0.1082609 0.0028,0.00875 0.048814,0.2802566 0.079777,0.4706921 0.00747,0.045948 0.0157,0.08567 0.018287,0.088271 0.00369,0.00371 0.3834846,-0.025112 0.7259857,-0.055096 0.024442,-0.00214 0.1675015,-0.013717 0.317911,-0.025727 0.1504096,-0.01201 0.2873164,-0.023479 0.3042375,-0.025487 0.023736,-0.00282 0.01124,0.00395 -0.054694,0.029627 -0.047003,0.018302 -0.091613,0.036275 -0.099133,0.039938 -0.00752,0.00366 -0.050592,0.020934 -0.095715,0.038378 -0.045123,0.017444 -0.1512641,0.058484 -0.2358695,0.091201 -0.084605,0.032717 -0.159981,0.062465 -0.1675015,0.066107 -0.00752,0.00364 -0.1490421,0.059333 -0.3144926,0.1237576 -0.1654505,0.064424 -0.3423526,0.1334954 -0.3931158,0.1534914 -0.1300537,0.051229 -0.2199268,0.085755 -0.223226,0.085755 -0.00155,0 -0.00414,-0.00409 -0.00576,-0.00908 z m 0.044382,-0.1567913 c 0,-0.00946 -0.00813,-0.01575 -0.014739,-0.011408 -0.00707,0.00464 -9.739e-4,0.017462 0.00831,0.017462 0.00354,0 0.00643,-0.00272 0.00643,-0.00605 z m 0.1914303,-0.00121 c 0,-0.004 -0.00136,-0.00726 -0.00301,-0.00726 -0.00166,0 -0.00492,0.00327 -0.00724,0.00726 -0.00232,0.004 -9.673e-4,0.00726 0.00301,0.00726 0.00398,0 0.00724,-0.00327 0.00724,-0.00726 z m -0.085752,-0.058618 c -0.00508,-0.00873 -0.023637,-0.00881 -0.023637,-1.034e-4 0,0.00787 0.014838,0.014531 0.022331,0.01002 0.00288,-0.00173 0.00347,-0.0062 0.00131,-0.00992 z m 0.2036866,-0.018838 c -0.0047,-0.00202 -0.012392,-0.00202 -0.017092,0 -0.0047,0.00202 -8.546e-4,0.00366 0.00855,0.00366 0.0094,0 0.013246,-0.00165 0.00855,-0.00366 z m 0.046148,-0.01776 c 0,-0.00357 -0.00461,-0.00649 -0.010255,-0.00649 -0.00564,0 -0.010255,0.0048 -0.010255,0.010669 0,0.0065 0.00401,0.00903 0.010255,0.00649 0.00564,-0.0023 0.010255,-0.0071 0.010255,-0.010669 z m -1.107561,-0.050074 c 0,-0.015321 -0.00995,-0.019549 -0.017092,-0.00726 -0.00499,0.00857 0.00148,0.021793 0.010659,0.021793 0.00354,0 0.00643,-0.00654 0.00643,-0.014529 z m 0.9316534,-0.00821 c -0.00412,-0.00438 -0.011404,-0.0054 -0.016182,-0.00226 -0.00642,0.00421 -0.00523,0.00704 0.00453,0.010805 0.016186,0.00624 0.021738,0.00217 0.011651,-0.00855 z m 0.2586588,-0.00121 c -0.00877,-0.00932 -0.017674,-0.00212 -0.011177,0.00905 0.00252,0.00433 0.00771,0.00581 0.011535,0.0033 0.00467,-0.00307 0.00455,-0.00713 -3.585e-4,-0.012347 z m -0.3493863,0.00215 c 0,-0.004 -0.00308,-0.00726 -0.00684,-0.00726 -0.00376,0 -0.00684,0.00327 -0.00684,0.00726 0,0.004 0.00308,0.00726 0.00684,0.00726 0.00376,0 0.00684,-0.00327 0.00684,-0.00726 z m 0.7178637,-0.085963 c 0,-0.00946 -0.00813,-0.01575 -0.014739,-0.011408 -0.00707,0.00464 -9.739e-4,0.017462 0.00831,0.017462 0.00354,0 0.00643,-0.00272 0.00643,-0.00605 z M 7.352854,5.1610638 c 0,-0.004 -0.00136,-0.00726 -0.00301,-0.00726 -0.00166,0 -0.00492,0.00327 -0.00724,0.00726 -0.00232,0.004 -9.672e-4,0.00726 0.00301,0.00726 0.00398,0 0.00724,-0.00327 0.00724,-0.00726 z m 0.4816333,-0.00788 c -0.0022,-0.00378 -0.00692,-0.00497 -0.010478,-0.00263 -0.00356,0.00234 -0.00467,0.00735 -0.00247,0.011134 0.0022,0.00378 0.00692,0.00497 0.010478,0.00263 0.00356,-0.00234 0.00467,-0.00735 0.00247,-0.011134 z m 0.5849069,-0.013909 c 0,-0.004 -0.00461,-0.00726 -0.010255,-0.00726 -0.00564,0 -0.010255,0.00327 -0.010255,0.00726 0,0.004 0.00461,0.00726 0.010255,0.00726 0.00564,0 0.010255,-0.00327 0.010255,-0.00726 z m -0.7247004,-0.00726 c 0,-0.004 -0.00308,-0.00726 -0.00684,-0.00726 -0.00376,0 -0.00684,0.00327 -0.00684,0.00726 0,0.004 0.00308,0.00726 0.00684,0.00726 0.00376,0 0.00684,-0.00327 0.00684,-0.00726 z m 0.5606173,0 c 0,-0.004 -0.00308,-0.00726 -0.00684,-0.00726 -0.00376,0 -0.00684,0.00327 -0.00684,0.00726 0,0.004 0.00308,0.00726 0.00684,0.00726 0.00376,0 0.00684,-0.00327 0.00684,-0.00726 z M 8.1459224,5.0952638 c 0,-0.00376 -0.00308,-0.00684 -0.00684,-0.00684 -0.00376,0 -0.00684,0.0051 -0.00684,0.011325 0,0.00623 0.00308,0.00931 0.00684,0.00684 0.00376,-0.00247 0.00684,-0.00757 0.00684,-0.011325 z m -0.8853652,-0.0141 c -0.00232,-0.004 -0.00848,-0.00726 -0.013674,-0.00726 -0.0052,0 -0.01135,0.00327 -0.013674,0.00726 -0.00241,0.00414 0.00348,0.00726 0.013674,0.00726 0.010192,0 0.01608,-0.00313 0.013674,-0.00726 z m 0.2700535,-0.065841 c 0,-0.019397 -0.014383,-0.025536 -0.024701,-0.010542 -0.012353,0.017951 2.565e-4,0.045309 0.014923,0.032376 0.00538,-0.00474 0.00978,-0.014568 0.00978,-0.021834 z m -0.369187,0.00815 c 0,-0.00376 -0.00308,-0.00886 -0.00684,-0.011326 -0.00376,-0.00247 -0.00684,6.068e-4 -0.00684,0.00684 0,0.00623 0.00308,0.011325 0.00684,0.011325 0.00376,0 0.00684,-0.00308 0.00684,-0.00684 z m 0.5332701,-0.065809 c 0,-0.004 -0.00326,-0.00726 -0.00724,-0.00726 -0.00398,0 -0.00534,0.00327 -0.00301,0.00726 0.00232,0.004 0.00558,0.00726 0.00724,0.00726 0.00166,0 0.00301,-0.00327 0.00301,-0.00726 z m -0.300819,-0.043587 c 0,-0.021039 -0.011705,-0.023878 -0.015331,-0.00372 -0.00177,0.00985 -0.00169,0.019528 1.718e-4,0.021511 0.0062,0.00659 0.01516,-0.00393 0.01516,-0.017793 z m 0.020943,-0.016975 c -0.0091,-0.00967 -0.017193,0.012706 -0.010734,0.029688 0.00422,0.011095 0.00564,0.010476 0.011195,-0.00486 0.00406,-0.011218 0.00389,-0.020198 -4.606e-4,-0.024824 z m -0.236302,0.02424 c 0.00232,-0.004 -5.71e-4,-0.00726 -0.00643,-0.00726 -0.00586,0 -0.010659,0.00327 -0.010659,0.00726 0,0.004 0.0029,0.00726 0.00643,0.00726 0.00354,0 0.00833,-0.00327 0.010659,-0.00726 z m 0.2632166,-0.00726 c 0,-0.004 -0.00136,-0.00726 -0.00301,-0.00726 -0.00166,0 -0.00492,0.00327 -0.00724,0.00726 -0.00232,0.004 -9.673e-4,0.00726 0.00301,0.00726 0.00398,0 0.00724,-0.00327 0.00724,-0.00726 z M 7.6673467,4.7905856 c 0,-0.004 -0.00308,-0.00726 -0.00684,-0.00726 -0.00376,0 -0.00684,0.00327 -0.00684,0.00726 0,0.004 0.00308,0.00726 0.00684,0.00726 0.00376,0 0.00684,-0.00327 0.00684,-0.00726 z m -0.027347,-0.029058 c 0,-0.004 -0.00308,-0.00726 -0.00684,-0.00726 -0.00376,0 -0.00684,0.00327 -0.00684,0.00726 0,0.004 0.00308,0.00726 0.00684,0.00726 0.00376,0 0.00684,-0.00327 0.00684,-0.00726 z M 7.5374478,4.6702926 c 0,-0.011987 -0.010805,-0.014012 -0.017092,-0.0032 -0.00558,0.00959 0.0026,0.023189 0.010728,0.017851 0.0035,-0.0023 0.00636,-0.00889 0.00636,-0.014648 z m -0.027347,-0.039526 c 0,-0.004 -0.00308,-0.00726 -0.00684,-0.00726 -0.00376,0 -0.00684,0.00327 -0.00684,0.00726 0,0.004 0.00308,0.00726 0.00684,0.00726 0.00376,0 0.00684,-0.00327 0.00684,-0.00726 z M 2.6643055,4.879048 c -0.01599,-0.00813 -0.02111,-0.014652 -0.01783,-0.022693 0.0094,-0.023133 0.01107,-0.051241 0.003,-0.051241 -0.01633,0 -0.03451,0.015444 -0.03451,0.029313 0,0.00785 -0.0016,0.014273 -0.0035,0.014273 -0.0019,0 -0.09809,-0.051882 -0.21365,-0.1152937 -0.115564,-0.063411 -0.271648,-0.1487771 -0.346852,-0.1897015 -0.07521,-0.040924 -0.141698,-0.081045 -0.147763,-0.089157 -0.0061,-0.00811 -0.01437,-0.012554 -0.01845,-0.00987 -0.0041,0.00268 -0.05947,-0.023817 -0.12309,-0.058887 -0.06362,-0.03507 -0.184905,-0.101357 -0.269532,-0.1473045 -0.09915,-0.053832 -0.152702,-0.08677 -0.150588,-0.092622 0.0018,-0.00499 -1.26e-4,-0.00908 -0.0043,-0.00908 -0.0042,0 -0.0076,0.00268 -0.0076,0.00595 0,0.00327 -0.03672,-0.013836 -0.08159,-0.038015 -0.04487,-0.024178 -0.08075,-0.044853 -0.07972,-0.045945 0.005,-0.00527 0.266501,0.056268 0.270837,0.063723 0.0032,0.00557 0.0065,0.00599 0.0093,0.00119 0.0029,-0.00491 0.01768,-0.00407 0.04425,0.00251 0.02197,0.00545 0.04888,0.011609 0.0598,0.013695 0.01092,0.00209 0.04292,0.0088 0.07112,0.014924 0.05151,0.011183 0.377327,0.080768 0.617807,0.1319462 0.07094,0.015096 0.125546,0.028663 0.121353,0.030148 -0.0115,0.00407 -0.0091,0.023283 0.0028,0.023283 0.0058,0 0.01233,-0.00515 0.0146,-0.011437 0.003,-0.00832 0.009,-0.010093 0.02201,-0.0065 0.0098,0.00271 0.0271,0.00647 0.03838,0.00835 0.01128,0.00188 0.0321,0.00611 0.04625,0.00939 l 0.02574,0.00597 0.02188,-0.074702 c 0.01509,-0.051529 0.0246,-0.073591 0.03066,-0.07112 0.0099,0.00404 0.01214,-0.00944 0.0026,-0.015713 -0.009,-0.00592 0.0067,-0.054905 0.0176,-0.054905 0.01044,0 0.0124,-0.012105 0.0025,-0.01574 -0.0088,-0.00325 0.03265,-0.1453884 0.0456,-0.1563084 0.0056,-0.00473 0.008,-0.012373 0.0053,-0.016987 -0.0052,-0.00894 0.03006,-0.1451307 0.03758,-0.1451307 0.0025,0 0.05014,0.049853 0.105977,0.1107834 0.05584,0.060931 0.133786,0.1458033 0.173219,0.1886054 0.05699,0.061858 0.0701,0.079863 0.06393,0.08777 -0.0113,0.014461 0.0054,0.036273 0.02537,0.033055 0.02285,-0.00369 0.23123,0.2188108 0.216115,0.2307583 -0.01279,0.010109 -0.01335,0.020198 -8.41e-4,0.015097 0.0051,-0.0021 0.01829,0.00195 0.0292,0.009 0.09678,0.078185 0.151332,0.2004842 0.200737,0.3146696 -0.06204,-0.022307 -0.115196,-0.044771 -0.118115,-0.049922 -0.0029,-0.00515 -0.0091,-0.00781 -0.01379,-0.00591 -0.0047,0.0019 -0.09919,-0.029664 -0.210051,-0.070146 -0.289678,-0.1057799 -0.327242,-0.1188978 -0.329897,-0.1152032 -0.0013,0.00182 -0.02944,0.07686 -0.06251,0.1667583 -0.03307,0.089898 -0.06212,0.1671247 -0.06455,0.171615 -0.0031,0.00582 -0.01084,0.00489 -0.02684,-0.00324 z m 0.859943,-0.1143172 c 0,-0.00623 -0.0031,-0.00931 -0.0068,-0.00684 -0.0038,0.00247 -0.0068,0.00757 -0.0068,0.011325 0,0.00376 0.0031,0.00684 0.0068,0.00684 0.0038,0 0.0068,-0.0051 0.0068,-0.011325 z m -1.059628,-0.032412 c 0.0041,-0.00807 0.0054,-0.018124 0.0029,-0.022334 -0.0036,-0.00615 -0.02353,0.022855 -0.02353,0.034212 0,0.00884 0.01431,5.795e-4 0.02059,-0.011877 z m -0.102627,-0.043008 c 0,-0.00981 -0.01246,-0.01661 -0.02062,-0.011252 -0.0038,0.00251 -0.0052,0.00761 -0.003,0.011326 0.0051,0.00882 0.02364,0.00877 0.02364,-7.32e-5 z m 0.793068,-0.05128 c 0,-0.004 -0.0031,-0.00726 -0.0068,-0.00726 -0.0038,0 -0.0068,0.00327 -0.0068,0.00726 0,0.004 0.0031,0.00726 0.0068,0.00726 0.0038,0 0.0068,-0.00327 0.0068,-0.00726 z m -0.652021,-0.054631 c -0.0023,-0.00642 -0.0075,-0.00954 -0.01143,-0.00693 -0.005,0.00325 -0.0047,0.00801 9.26e-4,0.015165 0.0099,0.012719 0.01628,0.00775 0.01051,-0.00823 z m 0.525821,0.01056 c 0.0063,-0.010818 -10e-4,-0.0167 -0.01409,-0.011362 -0.006,0.00246 -0.0091,0.00777 -0.0067,0.011794 0.0055,0.00953 0.01514,0.00933 0.02082,-4.32e-4 z m 0.310794,4.833e-4 c 0,-0.004 -0.0031,-0.00726 -0.0068,-0.00726 -0.0038,0 -0.0068,0.00327 -0.0068,0.00726 0,0.004 0.0031,0.00726 0.0068,0.00726 0.0038,0 0.0068,-0.00327 0.0068,-0.00726 z m -0.888784,-0.02179 c 0,-0.004 -0.0031,-0.00726 -0.0068,-0.00726 -0.0038,0 -0.0068,0.00327 -0.0068,0.00726 0,0.004 0.0031,0.00726 0.0068,0.00726 0.0038,0 0.0068,-0.00327 0.0068,-0.00726 z m -0.200973,-0.019826 c -0.0069,-0.00738 -0.01268,0.00373 -0.007,0.013537 0.0043,0.00741 0.0059,0.00741 0.0082,2.93e-5 0.0016,-0.00505 10e-4,-0.011152 -0.0013,-0.013566 z m -0.04515,-0.020986 c 0,-0.00599 -0.0031,-0.00888 -0.0068,-0.00641 -0.0038,0.00247 -0.0068,0.00939 -0.0068,0.015386 0,0.00599 0.0031,0.00888 0.0068,0.00641 0.0038,-0.00247 0.0068,-0.00939 0.0068,-0.015386 z m 0.878528,0.011754 c -0.0023,-0.004 -0.0087,-0.00726 -0.01408,-0.00726 -0.0054,0 -0.0099,0.00327 -0.0099,0.00726 0,0.004 0.0063,0.00726 0.01408,0.00726 0.0077,0 0.01218,-0.00327 0.0099,-0.00726 z m -0.858331,-0.02968 c -0.0042,-0.00833 -0.009,-0.013704 -0.01066,-0.011936 -0.0048,0.00508 0.0049,0.027088 0.01194,0.027088 0.0035,0 0.0029,-0.00681 -0.0013,-0.015151 z m 0.547257,-0.00258 c 0,-0.00176 -0.0031,-0.00522 -0.0068,-0.00769 -0.0038,-0.00247 -0.0068,-0.00103 -0.0068,0.0032 0,0.00423 0.0031,0.00769 0.0068,0.00769 0.0038,0 0.0068,-0.00144 0.0068,-0.0032 z m 0.129899,-0.00406 c 0,-0.004 -0.0031,-0.00726 -0.0068,-0.00726 -0.0038,0 -0.0068,0.00327 -0.0068,0.00726 0,0.004 0.0031,0.00726 0.0068,0.00726 0.0038,0 0.0068,-0.00327 0.0068,-0.00726 z m -0.311435,-0.029678 c -0.0022,-0.00378 -0.0069,-0.00497 -0.01048,-0.00263 -0.0036,0.00234 -0.0047,0.00735 -0.0025,0.011134 0.0022,0.00378 0.0069,0.00497 0.01048,0.00263 0.0036,-0.00234 0.0047,-0.00735 0.0025,-0.011134 z m 0.06844,0.00839 c 0.0051,-0.00869 -0.0078,-0.017306 -0.01691,-0.011325 -0.0076,0.00502 -0.0026,0.018088 0.0069,0.018088 0.0033,0 0.0078,-0.00304 0.01,-0.00676 z m -0.303945,-0.058189 c 0,-0.00376 -0.0031,-0.00886 -0.0068,-0.011326 -0.0038,-0.00247 -0.0068,6.068e-4 -0.0068,0.00684 0,0.00623 0.0031,0.011325 0.0068,0.011325 0.0038,0 0.0068,-0.00308 0.0068,-0.00684 z m 0.834089,-0.014958 c 0,-0.004 -0.0031,-0.00726 -0.0068,-0.00726 -0.0038,0 -0.0068,0.00327 -0.0068,0.00726 0,0.004 0.0031,0.00726 0.0068,0.00726 0.0038,0 0.0068,-0.00327 0.0068,-0.00726 z m -0.697353,-0.036323 c 0,-0.004 -0.0046,-0.00726 -0.01025,-0.00726 -0.0056,0 -0.01026,0.00327 -0.01026,0.00726 0,0.004 0.0046,0.00726 0.01026,0.00726 0.0056,0 0.01025,-0.00327 0.01025,-0.00726 z m 0.504647,-0.035066 c 0.0023,-0.024596 -0.0055,-0.029732 -0.01896,-0.012502 -0.0097,0.0124 -0.0028,0.042374 0.0089,0.038328 0.0044,-0.00153 0.0089,-0.013148 0.01011,-0.025826 z m 0.0423,-0.00126 c 0,-0.004 -0.0031,-0.00726 -0.0068,-0.00726 -0.0038,0 -0.0068,0.00327 -0.0068,0.00726 0,0.004 0.0031,0.00726 0.0068,0.00726 0.0038,0 0.0068,-0.00327 0.0068,-0.00726 z m -0.963989,-0.00726 c 0,-0.004 -0.0048,-0.00726 -0.01066,-0.00726 -0.0059,0 -0.0088,0.00327 -0.0064,0.00726 0.0023,0.004 0.0071,0.00726 0.01066,0.00726 0.0035,0 0.0064,-0.00327 0.0064,-0.00726 z m 0.75426,-0.018882 c -0.0026,-0.00728 -0.0063,-0.00868 -0.01073,-0.00403 -0.0078,0.00832 -2.5e-4,0.025039 0.0087,0.019168 0.0033,-0.00219 0.0042,-0.009 0.002,-0.015136 z m -1.113192,-0.028337 c 0,-0.019973 -0.01762,-0.018329 -0.02481,0.00231 -0.0051,0.014744 -0.0039,0.016555 0.0095,0.014529 0.01005,-0.00152 0.01534,-0.00732 0.01534,-0.016844 z m 0.352095,0.014958 c 0,-0.00176 -0.0031,-0.00522 -0.0068,-0.00769 -0.0038,-0.00247 -0.0068,-0.00103 -0.0068,0.0032 0,0.00423 0.0031,0.00769 0.0068,0.00769 0.0038,0 0.0068,-0.00144 0.0068,-0.0032 z m 0.871003,-0.024671 c 0.0052,-0.00887 -0.01549,-0.037506 -0.02705,-0.037506 -0.01,0 -0.01403,0.02948 -0.0053,0.038744 0.0064,0.00685 0.02814,0.00602 0.03236,-0.00124 z m -0.06426,-0.022977 c 0,-0.004 -0.0033,-0.00726 -0.0072,-0.00726 -0.004,0 -0.0053,0.00327 -0.003,0.00726 0.0023,0.004 0.0056,0.00726 0.0072,0.00726 0.0017,0 0.003,-0.00327 0.003,-0.00726 z m -0.205104,-0.029487 c 0,-0.00376 -0.0031,-0.00684 -0.0068,-0.00684 -0.0038,0 -0.0068,0.0051 -0.0068,0.011325 0,0.00623 0.0031,0.00931 0.0068,0.00684 0.0038,-0.00247 0.0068,-0.00757 0.0068,-0.011325 z m -0.0034,-0.09401 c -0.0023,-0.004 -0.0073,-0.00726 -0.01106,-0.00726 -0.0038,0 -0.0049,0.00327 -0.0026,0.00726 0.0023,0.004 0.0073,0.00726 0.01106,0.00726 0.0038,0 0.0049,-0.00327 0.0026,-0.00726 z m -0.03077,-0.047219 c 0,-0.00599 -0.0046,-0.010897 -0.01025,-0.010897 -0.0056,0 -0.01026,0.0049 -0.01026,0.010897 0,0.00599 0.0046,0.010897 0.01026,0.010897 0.0056,0 0.01025,-0.0049 0.01025,-0.010897 z m 3.9933295,-0.03689 c 0.00599,-0.00768 0.034787,-0.045017 0.063988,-0.082974 0.055428,-0.072049 0.065271,-0.081452 0.065271,-0.062353 0,0.00633 0.00461,0.011502 0.010255,0.011502 0.00746,0 0.010332,-0.00841 0.010538,-0.030874 2.626e-4,-0.028674 0.00623,-0.038443 0.083751,-0.1370958 0.045907,-0.058422 0.1280781,-0.1637965 0.1826016,-0.2341657 0.054523,-0.070369 0.1029792,-0.1279952 0.1076795,-0.1280579 0.0047,-6.26e-5 0.00778,-0.00322 0.00684,-0.00703 -0.00211,-0.00852 0.089671,-0.1311131 0.098152,-0.1311131 0.00336,0 0.00611,-0.00347 0.00611,-0.00771 0,-0.00612 0.1082978,-0.1491531 0.147559,-0.1948915 0.00716,-0.00834 0.020202,0.014444 0.074892,0.1307607 0.036425,0.07747 0.067321,0.1421099 0.068656,0.1436443 0.00134,0.00153 0.030987,-0.010369 0.065892,-0.026453 0.068982,-0.031786 0.086072,-0.030349 0.061365,0.00516 -0.016042,0.023055 -0.019128,0.036666 -0.00831,0.036666 0.011758,0 0.030323,-0.03758 0.028833,-0.058362 -0.00133,-0.01849 0.00252,-0.021859 0.048095,-0.042073 0.035885,-0.015919 0.050944,-0.019621 0.054646,-0.013437 0.00355,0.00593 0.00514,0.00517 0.00522,-0.00248 6.62e-5,-0.00697 0.023345,-0.021418 0.063345,-0.039327 0.034782,-0.015573 0.160152,-0.072216 0.2785995,-0.1258749 0.2800561,-0.1268698 0.3418398,-0.154168 0.3418398,-0.151037 0,0.00142 -0.049994,0.051045 -0.1110979,0.1102823 -0.061104,0.059237 -0.149555,0.14521 -0.1965579,0.1910511 -0.047003,0.045841 -0.097382,0.094944 -0.1119526,0.1091168 -0.017222,0.016752 -0.027589,0.022592 -0.029626,0.016689 -0.00172,-0.00499 -0.00788,-0.00908 -0.013674,-0.00908 -0.00773,0 -0.00967,0.00532 -0.00727,0.019977 0.00291,0.017805 -0.00509,0.028066 -0.073642,0.094373 -0.053271,0.051528 -0.078053,0.07124 -0.080621,0.064128 -0.00226,-0.00626 -0.0092,-0.00874 -0.0178,-0.00635 -0.016237,0.00451 -0.017556,0.010038 -0.00555,0.023234 0.0069,0.00759 -0.00308,0.020858 -0.051961,0.069101 -0.051325,0.05065 -0.063423,0.059256 -0.079724,0.056714 -0.0208,-0.00324 -0.037471,0.017016 -0.030313,0.036838 0.00246,0.00682 -0.047909,0.060642 -0.1470721,0.1571507 -0.091624,0.089171 -0.1520294,0.1430442 -0.1539056,0.1372615 -0.032182,-0.099186 -0.070645,-0.2348092 -0.06792,-0.2394926 0.00196,-0.00337 7.023e-4,-0.00612 -0.00279,-0.00612 -0.00349,0 -0.010228,-0.014711 -0.014966,-0.03269 -0.00474,-0.01798 -0.011811,-0.03269 -0.015719,-0.03269 -0.00391,0 -0.023637,0.00991 -0.043842,0.022031 -0.020206,0.012117 -0.039683,0.020096 -0.043283,0.017732 -0.0036,-0.00236 -0.00661,-1.88e-5 -0.00668,0.00521 -7.64e-5,0.00523 -0.043917,0.035978 -0.097424,0.068329 C 7.0377373,3.802987 6.9124301,3.8793624 6.8127838,3.9403595 6.7131378,4.0013565 6.6285321,4.0530889 6.6247719,4.05532 c -0.00376,0.00223 -0.00193,-0.00223 0.00406,-0.0099 z m 0.7650812,-0.170148 c 0,-0.004 -0.00283,-0.00726 -0.00628,-0.00726 -0.00345,0 -0.011913,-0.00225 -0.018801,-0.00499 -0.011024,-0.00439 -0.0114,-0.00353 -0.00314,0.00726 0.010259,0.013401 0.028219,0.016578 0.028219,0.00499 z m -0.536687,-0.029063 c 0,-0.00932 -0.00347,-0.018178 -0.0077,-0.019679 -0.0097,-0.00344 -0.017111,0.016038 -0.01175,0.030883 0.00591,0.016358 0.019454,0.00856 0.019454,-0.011204 z m 0.6392404,-0.063131 c 0,-0.014299 -0.016491,-0.00797 -0.019298,0.00741 -0.00154,0.00843 0.00105,0.010759 0.00855,0.0077 0.00591,-0.00241 0.010752,-0.00921 0.010752,-0.015109 z m 0.1298992,-0.082159 c -0.00437,-0.00868 -0.00948,-0.014139 -0.011363,-0.012141 -0.00188,0.002 1.567e-4,0.01073 0.00453,0.019406 0.00437,0.00868 0.00948,0.014139 0.011363,0.012141 0.00188,-0.002 -1.567e-4,-0.01073 -0.00453,-0.019406 z M 7.1956326,3.6691141 c 0,-0.013492 -0.01811,-0.029055 -0.023342,-0.020059 -0.00607,0.010433 0.00296,0.030066 0.013819,0.030066 0.00524,0 0.00952,-0.0045 0.00952,-0.010007 z m 0.3315846,0.00274 c -0.00232,-0.004 -0.010378,-0.00726 -0.017899,-0.00726 -0.00752,0 -0.011772,0.00327 -0.00945,0.00726 0.00232,0.004 0.010378,0.00726 0.017899,0.00726 0.00752,0 0.011772,-0.00327 0.00945,-0.00726 z M 7.3525818,3.6387831 c -0.00452,-0.00578 -0.010914,-0.010516 -0.014214,-0.010516 -0.00888,0 -0.00728,0.024793 0.00225,0.034917 0.011974,0.012723 0.023153,-0.010076 0.011964,-0.024401 z m 0.2476752,0.016968 c -0.00491,-0.00521 -0.00809,-0.00564 -0.00809,-0.00109 0,0.0097 0.00809,0.018288 0.012648,0.013439 0.00194,-0.00206 -1.082e-4,-0.00762 -0.00456,-0.01235 z m -0.3704404,-0.00249 c 0,-0.00623 -0.00313,-0.00927 -0.00695,-0.00676 -0.00382,0.00251 -0.00518,0.00761 -0.00301,0.011326 0.00586,0.010076 0.00996,0.0082 0.00996,-0.00456 z m 0.00247,-0.064952 c 0.0024,-0.00664 1.08e-5,-0.010897 -0.00611,-0.010897 -0.00552,0 -0.010041,0.0049 -0.010041,0.010897 0,0.00599 0.00275,0.010897 0.00611,0.010897 0.00336,0 0.00788,-0.0049 0.010041,-0.010897 z m 0.3667147,0.00363 c 0,-0.004 -0.00461,-0.00726 -0.010255,-0.00726 -0.00564,0 -0.010255,0.00327 -0.010255,0.00726 0,0.004 0.00461,0.00726 0.010255,0.00726 0.00564,0 0.010255,-0.00327 0.010255,-0.00726 z m -0.2632167,-0.00726 c -0.00232,-0.004 -0.00712,-0.00726 -0.010659,-0.00726 -0.00354,0 -0.00643,0.00327 -0.00643,0.00726 0,0.004 0.0048,0.00726 0.010659,0.00726 0.00586,0 0.00876,-0.00327 0.00643,-0.00726 z m -0.283727,-0.014529 c 0,-0.004 -0.00326,-0.00726 -0.00724,-0.00726 -0.00398,0 -0.00534,0.00327 -0.00301,0.00726 0.00232,0.004 0.00558,0.00726 0.00724,0.00726 0.00166,0 0.00302,-0.00327 0.00302,-0.00726 z m 0.2392878,-0.014529 c 0,-0.004 -0.0048,-0.00726 -0.010659,-0.00726 -0.00586,0 -0.00876,0.00327 -0.00643,0.00726 0.00232,0.004 0.00712,0.00726 0.010659,0.00726 0.00354,0 0.00643,-0.00327 0.00643,-0.00726 z m 0.2871455,-0.0032 c 0,-0.00576 -0.00286,-0.012349 -0.00636,-0.014647 -0.00813,-0.00534 -0.016303,0.00827 -0.010728,0.017851 0.00629,0.010809 0.017092,0.00878 0.017092,-0.0032 z m -0.2324511,-0.08397 c 0,-0.004 -0.00136,-0.00726 -0.00301,-0.00726 -0.00166,0 -0.00492,0.00327 -0.00724,0.00726 -0.00232,0.004 -9.672e-4,0.00726 0.00301,0.00726 0.00398,0 0.00724,-0.00327 0.00724,-0.00726 z m 0.4990861,-0.050851 c 0,-0.004 -0.00308,-0.00726 -0.00684,-0.00726 -0.00376,0 -0.00684,0.00327 -0.00684,0.00726 0,0.004 0.00308,0.00726 0.00684,0.00726 0.00376,0 0.00684,-0.00327 0.00684,-0.00726 z M 7.6019393,3.3821031 c 0.00206,-0.00354 -0.00237,-0.00814 -0.00985,-0.010217 -0.013374,-0.00372 -0.017984,0.00231 -0.00904,0.011812 0.00633,0.00673 0.014446,0.00605 0.018891,-0.0016 z m -0.4199826,-0.00809 c 0,-0.004 -0.00136,-0.00726 -0.00301,-0.00726 -0.00166,0 -0.00492,0.00327 -0.00724,0.00726 -0.00232,0.004 -9.673e-4,0.00726 0.00301,0.00726 0.00398,0 0.00724,-0.00327 0.00724,-0.00726 z m 0.6111618,-0.018755 c 0.00707,-0.019581 0.00461,-0.032096 -0.00632,-0.032096 -0.01236,0 -0.019972,0.017275 -0.014405,0.03269 0.00513,0.014214 0.015484,0.013917 0.020725,-5.94e-4 z M 7.3016029,3.2941041 c -0.00331,-0.00569 -0.00724,-0.00611 -0.011798,-0.00127 -0.00376,0.004 -0.0046,0.011103 -0.00188,0.015795 0.00331,0.00569 0.00724,0.00611 0.011798,0.00127 0.00376,-0.004 0.0046,-0.011103 0.00188,-0.015795 z m 0.6870981,4.287e-4 c 0,-0.00857 -0.013334,-0.01774 -0.018231,-0.012536 -0.0049,0.0052 0.00373,0.019372 0.011798,0.019372 0.00354,0 0.00643,-0.00308 0.00643,-0.00684 z M 7.7767603,3.2505168 c 0,-0.004 -0.00308,-0.00726 -0.00684,-0.00726 -0.00376,0 -0.00684,0.00327 -0.00684,0.00726 0,0.004 0.00308,0.00726 0.00684,0.00726 0.00376,0 0.00684,-0.00327 0.00684,-0.00726 z M 3.2403405,3.0832887 c -0.1649,-0.1319303 -0.302497,-0.2389241 -0.305772,-0.237764 -0.0047,0.00167 -0.07481,0.1547154 -0.129883,0.2835871 l -0.0086,0.020252 -0.196746,-0.2438473 c -0.10821,-0.134116 -0.200144,-0.2517723 -0.204298,-0.2614585 -0.0041,-0.00969 -0.01134,-0.018581 -0.01598,-0.019765 -0.01407,-0.0036 -0.181414,-0.2172967 -0.176616,-0.2255454 0.0025,-0.00423 0.0013,-0.00562 -0.0025,-0.00309 -0.0087,0.00573 -0.07716,-0.076763 -0.07716,-0.093012 0,-0.00654 -0.0028,-0.010067 -0.0062,-0.00783 -0.0068,0.00447 -0.13944,-0.1571229 -0.143003,-0.1742199 -0.0012,-0.00583 -0.0048,-0.010605 -0.008,-0.010605 -0.0047,0 -0.05788,-0.063141 -0.142965,-0.1698186 -0.0081,-0.010135 -0.0017,-0.00827 0.02492,0.00726 0.01969,0.011493 0.03584,0.024868 0.03589,0.029722 1.17e-4,0.010471 0.02091,0.023103 0.03139,0.019066 0.004,-0.00156 0.05635,0.027245 0.116226,0.06401 0.11968,0.073486 0.450858,0.2764137 0.581845,0.3565238 0.0458,0.028014 0.0853,0.05074 0.08778,0.050503 0.0025,-2.371e-4 0.04208,-0.059154 0.08801,-0.1309267 l 0.08351,-0.1304957 0.05747,0.09555 c 0.03161,0.052552 0.08037,0.1331434 0.108355,0.1790912 0.02799,0.045948 0.110872,0.1832466 0.184192,0.3051083 0.07332,0.1218617 0.146185,0.2428154 0.161924,0.2687859 0.04003,0.066048 0.120999,0.2010183 0.14273,0.2379118 0.01,0.016981 0.01711,0.030874 0.0158,0.030874 -0.0013,0 -0.137304,-0.107943 -0.302204,-0.2398732 z m 0.102733,0.050997 c -0.0023,-0.004 -0.0073,-0.00726 -0.01106,-0.00726 -0.0038,0 -0.0049,0.00327 -0.0026,0.00726 0.0023,0.004 0.0073,0.00726 0.01106,0.00726 0.0038,0 0.0049,-0.00327 0.0026,-0.00726 z m -0.03197,-0.033904 c -0.0033,-0.018225 -0.0193,-0.020727 -0.0193,-0.00302 0,0.00892 0.0044,0.015134 0.01076,0.015134 0.0064,0 0.0099,-0.00494 0.0085,-0.012111 z M 2.8330395,2.8761741 c -0.0056,-0.006 -0.016,-0.00847 -0.02498,-0.00598 -0.02297,0.00638 -0.01847,0.013289 0.0097,0.014843 0.02147,0.00119 0.0236,-5.15e-5 0.01531,-0.00886 z m 0.243403,-0.025204 c -0.0023,-0.004 -0.0073,-0.00726 -0.01106,-0.00726 -0.0038,0 -0.0049,0.00327 -0.0026,0.00726 0.0023,0.004 0.0073,0.00726 0.01106,0.00726 0.0038,0 0.0049,-0.00327 0.0026,-0.00726 z m -0.242706,-0.043698 c 0.0091,-0.00636 0.0091,-0.00795 0,-0.014306 -0.01239,-0.00864 -0.03418,-0.00964 -0.03418,-0.00156 0,0.00664 0.01452,0.023302 0.02017,0.023135 0.0021,-6.12e-5 0.0084,-0.00333 0.01401,-0.00726 z m 0.293982,-0.023034 c 0,-0.00952 -0.02909,-0.00424 -0.03221,0.00585 -0.0016,0.00513 0.0039,0.00683 0.01485,0.0046 0.0096,-0.00194 0.01736,-0.00664 0.01736,-0.01045 z m 0.07912,0.00483 c -0.01405,-0.011294 -0.0219,-0.0095 -0.01445,0.0033 0.0025,0.00426 0.0097,0.00764 0.01607,0.00752 0.01015,-2.029e-4 0.0099,-0.00152 -0.0016,-0.010822 z m -0.01759,-0.045852 c 0,-0.010223 -0.0077,-0.014933 -0.01772,-0.010846 -0.0053,0.00214 -0.0078,0.00682 -0.0058,0.010396 0.0048,0.0082 0.02349,0.00856 0.02349,4.496e-4 z m -0.290564,-0.00848 c 0.0023,-0.004 -7.52e-4,-0.00726 -0.0068,-0.00726 -0.0061,0 -0.0092,0.00327 -0.0068,0.00726 0.0023,0.004 0.0054,0.00726 0.0068,0.00726 0.0014,0 0.0045,-0.00327 0.0068,-0.00726 z m 0.154677,-0.023731 c -0.0067,-0.00712 -0.0075,-0.00629 -0.0038,0.00407 0.0026,0.00716 0.0064,0.011196 0.0085,0.00896 0.0021,-0.00224 4e-6,-0.0081 -0.0047,-0.013026 z m 0.0265,-0.019856 c 0,-0.004 -0.0031,-0.00726 -0.0068,-0.00726 -0.0038,0 -0.0068,0.00327 -0.0068,0.00726 0,0.004 0.0031,0.00726 0.0068,0.00726 0.0038,0 0.0068,-0.00327 0.0068,-0.00726 z m -0.116226,-0.01859 c 0,-0.00623 -0.0031,-0.00927 -0.0069,-0.00676 -0.0038,0.00251 -0.0052,0.00761 -0.003,0.011325 0.0059,0.010076 0.01,0.0082 0.01,-0.00456 z M 2.5431725,2.61124 c 0.0023,-0.004 9.67e-4,-0.00726 -0.003,-0.00726 -0.004,0 -0.0072,0.00327 -0.0072,0.00726 0,0.004 0.0014,0.00726 0.003,0.00726 0.0017,0 0.0049,-0.00327 0.0072,-0.00726 z m 0.317911,-0.024997 c 0,-0.00767 -0.01312,-0.010889 -0.01702,-0.00418 -0.0024,0.00406 5.02e-4,0.00738 0.0064,0.00738 0.0059,0 0.01066,-0.00144 0.01066,-0.0032 z m -0.205104,-0.00726 c 0,-0.00176 -0.0031,-0.00522 -0.0068,-0.00769 -0.0038,-0.00247 -0.0068,-0.00103 -0.0068,0.0032 0,0.00423 0.0031,0.00769 0.0068,0.00769 0.0038,0 0.0068,-0.00144 0.0068,-0.0032 z m 0.08888,-0.010897 c 0,-0.016839 -0.01227,-0.026616 -0.02133,-0.016992 -0.0086,0.00912 -2.38e-4,0.031093 0.01181,0.031093 0.0052,0 0.0095,-0.00635 0.0095,-0.0141 z m -0.162379,-0.085151 c -0.0047,-0.00202 -0.01239,-0.00202 -0.01709,0 -0.0047,0.00202 -8.55e-4,0.00366 0.0085,0.00366 0.0094,0 0.01325,-0.00165 0.0085,-0.00366 z m 0.03931,-0.00566 c 0,-0.00176 -0.0031,-0.00522 -0.0068,-0.00769 -0.0038,-0.00247 -0.0068,-0.00103 -0.0068,0.0032 0,0.00423 0.0031,0.00769 0.0068,0.00769 0.0038,0 0.0068,-0.00144 0.0068,-0.0032 z m -0.09913,-0.036245 c 0,-0.016118 -0.0097,-0.021123 -0.02322,-0.012018 -0.01293,0.00869 -0.0039,0.031393 0.01123,0.028294 0.0066,-0.00135 0.01198,-0.00867 0.01198,-0.016276 z m -0.266635,0.00313 c 0.0023,-0.004 0.0011,-0.00726 -0.0026,-0.00726 -0.0038,0 -0.0087,0.00327 -0.01106,0.00726 -0.0023,0.004 -0.0011,0.00726 0.0026,0.00726 0.0038,0 0.0087,-0.00327 0.01106,-0.00726 z m 0.112807,-0.00726 c 0,-0.004 -0.0033,-0.00726 -0.0072,-0.00726 -0.004,0 -0.0053,0.00327 -0.003,0.00726 0.0023,0.004 0.0056,0.00726 0.0072,0.00726 0.0017,0 0.003,-0.00327 0.003,-0.00726 z m 0.04444,-0.043587 c 0.0023,-0.004 9.67e-4,-0.00726 -0.003,-0.00726 -0.004,0 -0.0072,0.00327 -0.0072,0.00726 0,0.004 0.0014,0.00726 0.003,0.00726 0.0017,0 0.0049,-0.00327 0.0072,-0.00726 z m -0.0376,-0.047219 c 0,-0.00599 -0.005,-0.010897 -0.01109,-0.010897 -0.0091,0 -0.0096,0.00197 -0.0026,0.010897 0.0047,0.00599 0.0097,0.010897 0.01109,0.010897 0.0014,0 0.0026,-0.0049 0.0026,-0.010897 z m -0.32133,-0.2462205 c 0,-0.00157 -0.0048,-0.0048 -0.01061,-0.00718 -0.0061,-0.00248 -0.0088,-0.00126 -0.0064,0.00286 0.004,0.0069 0.01704,0.01021 0.01704,0.00433 z"
       id="path4"
       sodipodi:nodetypes="csscccssssssscsssccsscccccccssssssssccsssssssccccccsssccccccssssscsssscscscssscsscscscccsccccccscccccccccccccscccssccscsssccccccssccsssssscssscsscssssscsccccsssssscsssscccssssscccscsssssssscsscccssccssccscccccccscccssccsscssscsssssssscssscsssssssssssssssssssscsssccssccscsssssscssccscccsscccssscsssssssssssscssccsccsssssccsssssccsscssccsccccscsccsccsccscccsssssscssscccssccssssssscssccsccsscsscccccccsccsssssssssscsscssssscsssccssscsssssssscscccscscsssccssscsssssssscscccscssscsssccsccccccccscssscscscccsscssssscscscscssssscssssssscsssscsssccscsssssscscsscccccsssscscccssssccscscccccsccsscccccscccscccscsccscccscccsscsscssscssssscsssccscsccsscssccsccsscssssscscccccsscsscscccccscccsscsssscccccsccscsccsccsccsssccssssscccscsccssccccccccscscccssccsccscccccccccccsccccccscssscssscsscssscccsscsssssccssccssscssscsccccccscccsscsscssccssccsccc" /></g></svg>
