<?xml version="1.0" encoding="UTF-8" standalone="no"?>
<svg
   viewBox="0 0 24 16"
   preserveAspectRatio="xMinYMin"
   version="1.1"
   id="svg5"
   sodipodi:docname="zh.svg"
   inkscape:version="1.4.2 (ebf0e940, 2025-05-08)"
   xmlns:inkscape="http://www.inkscape.org/namespaces/inkscape"
   xmlns:sodipodi="http://sodipodi.sourceforge.net/DTD/sodipodi-0.dtd"
   xmlns="http://www.w3.org/2000/svg"
   xmlns:svg="http://www.w3.org/2000/svg">
  <defs
     id="defs5" />
  <sodipodi:namedview
     id="namedview5"
     pagecolor="#ffffff"
     bordercolor="#000000"
     borderopacity="0.25"
     inkscape:showpageshadow="2"
     inkscape:pageopacity="0.0"
     inkscape:pagecheckerboard="0"
     inkscape:deskcolor="#d1d1d1"
     inkscape:zoom="26"
     inkscape:cx="11.596154"
     inkscape:cy="7.6153846"
     inkscape:window-width="1608"
     inkscape:window-height="921"
     inkscape:window-x="0"
     inkscape:window-y="25"
     inkscape:window-maximized="0"
     inkscape:current-layer="svg5" />
  <rect
     width="24"
     height="16"
     style="fill: #de2910; stroke-opacity: 0;"
     id="rect1" />
  <!-- Большая звезда (в левом верхнем углу) -->
  <polygon
     points="5,7 8,7 5.5,8.8 6.5,12 4,10.2 1.5,12 2.5,8.8 0,7 3,7 4,4 "
     style="fill:#ffde00;stroke-opacity:0"
     id="polygon1"
     transform="translate(0.42307692,-3.5)" />
  <!-- Маленькая звезда 1 (правее и ниже большой) -->
  <polygon
     points="10.8,8 11.2,9.4 10,8.6 8.8,9.4 9.2,8 8,7.2 9.4,7.2 10,6 10.6,7.2 12,7.2 "
     style="fill:#ffde00;stroke-opacity:0"
     id="polygon2"
     transform="translate(-0.80769231,4.1153846)" />
  <!-- Маленькая звезда 2 (еще правее и ниже) -->
  <polygon
     points="14,9.2 12.8,10 13.2,11.4 12,10.6 10.8,11.4 11.2,10 10,9.2 11.4,9.2 12,8 12.6,9.2 "
     style="fill:#ffde00;stroke-opacity:0"
     id="polygon3"
     transform="translate(-8.1153846,3.3076924)" />
  <!-- Маленькая звезда 3 (правее и выше) -->
  <polygon
     points="13.2,7.4 12,6.6 10.8,7.4 11.2,6 10,5.2 11.4,5.2 12,4 12.6,5.2 14,5.2 12.8,6 "
     style="fill:#ffde00;stroke-opacity:0"
     id="polygon4"
     transform="translate(0.3076923,2.5769231)" />
  <!-- Маленькая звезда 4 (еще правее и выше) -->
  <polygon
     points="14.8,4 15.2,5.4 14,4.6 12.8,5.4 13.2,4 12,3.2 13.4,3.2 14,2 14.6,3.2 16,3.2 "
     style="fill:#ffde00;stroke-opacity:0"
     id="polygon5"
     transform="translate(-0.80769229)"></polygon>
</svg>
